<?xml version="1.0" encoding="UTF-8"?>
<svg xmlns="http://www.w3.org/2000/svg" width="282" height="404" viewBox="224 -20 282 404" role="img" aria-label="Elemento corallo Coralì">
  <title>Elemento corallo Coralì</title>
  <path fill-rule="evenodd" fill="rgb(0%, 61.961365%, 89.019775%)" fill-opacity="1" d="M 439.277344 111.253906 C 444.601562 119.722656 442.65625 136.507812 439.152344 145.210938 C 428.554688 171.519531 395.320312 185.171875 386.589844 212.621094 C 383.019531 223.847656 385.621094 233.222656 379.582031 244.503906 C 374.222656 254.519531 368.238281 258.796875 362.757812 267.59375 C 357 276.839844 353.484375 278.726562 351.984375 297.167969 C 351.058594 308.609375 350.546875 325.617188 355.730469 333.945312 C 355.800781 327.070312 354.605469 326.316406 358.65625 322.511719 C 370.992188 310.921875 370.742188 308.125 387.460938 318.957031 C 394.480469 323.503906 404.628906 324.738281 408.5625 317.070312 C 411.835938 310.703125 410.601562 297.539062 410.707031 289.277344 C 410.910156 273.460938 416.554688 279.171875 418.589844 266.933594 C 420.585938 254.960938 419.757812 252.074219 427.261719 245.757812 C 434.515625 239.652344 436.648438 239.375 438.964844 227.378906 C 440.683594 218.464844 443.226562 211.105469 449.601562 208.542969 C 468.878906 218.359375 431.886719 244.269531 444.878906 260.128906 C 449.582031 265.863281 464.722656 268.683594 471.710938 263.828125 C 481.09375 257.308594 473.921875 246.191406 490.339844 247.023438 C 499.773438 260.039062 494.894531 287.929688 474.828125 288.519531 C 460.585938 288.9375 436.480469 270.175781 425.230469 281.609375 C 417.664062 289.304688 410.765625 318.765625 418.492188 331.550781 C 421.863281 337.132812 432.066406 344.210938 440.339844 339.230469 C 448.179688 334.507812 442.363281 324.683594 448.992188 315.835938 L 455.714844 315.800781 C 464.425781 330.914062 460.824219 349.164062 446.433594 355.308594 C 435.292969 360.0625 408.570312 351.46875 399.902344 346.734375 C 393.152344 343.046875 388.382812 338.707031 378.960938 338.101562 C 353.699219 336.46875 357.570312 363.832031 353.246094 370.652344 C 348.890625 377.519531 338.734375 373.921875 332.066406 372.089844 C 330.441406 361.382812 338.683594 347.125 334.117188 338.125 C 326.550781 323.214844 295.621094 340.1875 288.8125 303.839844 C 286.449219 291.210938 288.40625 280.210938 284.714844 267.242188 C 276.128906 237.09375 255.351562 248.753906 244.003906 228.414062 C 236.035156 214.136719 241.554688 193.96875 236.175781 174.535156 C 234.644531 169.003906 230.671875 162.328125 234.679688 158.191406 C 237.425781 155.28125 246.597656 155.230469 247.054688 172.644531 C 247.308594 182.445312 246.390625 193.421875 248.054688 203.023438 C 252.226562 227.078125 264.605469 223.214844 280.101562 232.332031 C 299.039062 243.46875 290.164062 257.773438 292.917969 280.230469 C 294.234375 290.953125 299.128906 295.125 304.964844 299.742188 C 310.445312 304.082031 315.191406 312.582031 321.261719 315.054688 C 318.71875 306.082031 308.097656 305.429688 308.734375 281.289062 C 309.765625 242.246094 322.671875 234.738281 288.613281 217.292969 C 282.386719 214.105469 265.730469 201.402344 272.511719 189.527344 C 277.695312 190.40625 276.601562 193.636719 281.09375 197.160156 C 284.273438 199.652344 288.101562 200.820312 292.066406 203.113281 C 298.175781 206.640625 304.941406 217.703125 314.253906 213.207031 C 319.988281 208.429688 317.753906 200.382812 313.792969 196.398438 C 310.121094 192.703125 304.410156 190.550781 300.113281 187.457031 C 285.175781 176.699219 294.640625 132.644531 295.613281 131.585938 C 298.875 128.046875 304.210938 130.472656 303.875 144.054688 C 303.507812 159.039062 303.238281 174.082031 314.425781 179.378906 C 352.808594 197.550781 296.109375 220.648438 327.0625 281.035156 C 330.429688 287.605469 331.230469 289.273438 333.5625 297.644531 C 334.097656 299.570312 339.058594 314.496094 339.648438 315.648438 C 341.328125 304.296875 337.574219 308.898438 343.132812 298.867188 C 350.332031 285.878906 338.367188 276.988281 357.679688 250.199219 C 367.195312 236.996094 380.152344 207.355469 370.527344 183.046875 C 365.386719 170.054688 361.296875 166.019531 354.015625 157.070312 C 345.070312 146.074219 346.226562 139.457031 339.507812 127.816406 C 331.671875 114.238281 322.542969 118.855469 313.882812 110.570312 C 308.855469 105.765625 300.160156 87.070312 307.28125 80.507812 C 313.679688 88.417969 319.441406 108.789062 332.4375 102.179688 C 344.273438 92.710938 329.402344 47.238281 339.066406 34.4375 C 354.195312 33.011719 351.515625 51.085938 348.125 62.339844 C 344.628906 73.957031 341.988281 76.15625 343.613281 91.449219 C 345.847656 112.480469 341.394531 120.035156 371.214844 154.449219 C 371.28125 149.964844 371.316406 150.121094 375.394531 140.953125 C 385.582031 118.0625 380.050781 113.734375 380.933594 92.566406 C 381.976562 67.5625 399.074219 65.933594 404.652344 45.660156 C 408.570312 31.421875 406.445312 25.824219 406.042969 11.316406 C 405.335938 -13.875 428.976562 10.761719 418.140625 46.058594 C 413.515625 61.121094 403.296875 69.09375 396.785156 77.902344 C 383.417969 95.992188 393.042969 106.828125 390.378906 126.351562 C 388.941406 136.890625 362.238281 194.082031 388.679688 185.683594 C 396.96875 183.050781 390.296875 175.148438 411.480469 155.15625 C 417.289062 149.671875 423.867188 145.371094 426.34375 134.316406 C 428.59375 124.269531 428.121094 110.207031 439.277344 111.253906 "/>
</svg>
