<?xml version="1.0" encoding="UTF-8"?>
<svg xmlns="http://www.w3.org/2000/svg" xmlns:xlink="http://www.w3.org/1999/xlink" width="756.1504pt" height="616.3366pt" viewBox="0 0 756.1504 616.3366">
<path fill-rule="evenodd" fill="rgb(89.019775%, 89.019775%, 89.411926%)" fill-opacity="1" d="M 166.902344 223.570312 C 161.929688 210.277344 166.3125 215.773438 159.816406 213.8125 C 157.183594 219.742188 165.324219 240.914062 169.632812 246.707031 L 177.644531 248.832031 C 173.117188 251.546875 163.375 268.132812 158.171875 267.332031 C 156.820312 291.5 149.058594 361.09375 206.5625 404.445312 C 210.191406 397.621094 194.898438 376.304688 204.414062 381.664062 C 212.25 386.074219 228.058594 408.953125 229.210938 420.839844 C 245.328125 431.550781 257.796875 437.136719 275.703125 444.378906 C 283.671875 447.601562 321.269531 462.480469 326.5 460.035156 C 318.296875 453.328125 289.195312 438.015625 277.894531 430.996094 C 282.113281 428.738281 336.453125 447.007812 346.660156 451.722656 C 383.667969 468.503906 386.128906 464.207031 427.539062 463.78125 C 448.992188 463.5625 453.640625 463.332031 466.234375 446.011719 C 473.175781 436.460938 479.664062 444.03125 495.546875 438.273438 C 500.378906 436.519531 504.648438 435.6875 506.03125 430.207031 C 509.542969 433.71875 506.992188 433.066406 509.695312 438.046875 C 520.679688 439.574219 521.554688 431.175781 519.007812 420.667969 C 524.878906 420.230469 534.929688 410.773438 535.082031 405.886719 C 534.484375 402.355469 535.191406 399.152344 536.183594 395.148438 C 537.140625 390.511719 548.015625 385.726562 550.160156 377.90625 C 569.167969 355.132812 569.625 366.023438 582.757812 359.210938 C 606.847656 346.714844 598.863281 307.382812 609.027344 303.089844 C 613.828125 317.160156 610.066406 354.636719 609.414062 374.417969 C 609.222656 380.257812 609.589844 382.761719 611.683594 385.25 C 618.070312 372.417969 633.636719 352.523438 636.769531 357.207031 C 652.011719 379.980469 608.441406 430.851562 597.066406 445.03125 C 593.597656 449.359375 585.796875 455.292969 584.78125 461.414062 C 593.082031 461.78125 601.019531 457.398438 609.621094 453.59375 C 613.292969 451.964844 613.296875 449.597656 618.074219 451.324219 C 612.488281 459.722656 604.542969 463.925781 601.175781 473.863281 C 608.371094 472.355469 607.429688 470.683594 613.027344 470.199219 C 605.878906 503.195312 545.789062 522.261719 562.550781 535.160156 C 567.921875 539.125 576.617188 529.71875 589.359375 531.285156 C 586.933594 566.363281 493.773438 587.214844 484.429688 592.273438 C 472.03125 598.980469 417.429688 610.304688 404.671875 612.3125 C 355.332031 620.074219 306.535156 607.335938 262.90625 592.546875 C 245.757812 586.734375 227.277344 579.917969 211.957031 569.320312 L 168.097656 539.902344 C 141.144531 517.621094 115.800781 487.449219 100.539062 455.285156 C 79.921875 411.832031 77.101562 409.78125 65.285156 356.421875 C 54.808594 309.128906 60.246094 238.621094 78.792969 194.078125 C 81.207031 188.28125 82.140625 185.023438 85.496094 182.085938 C 85.640625 189.1875 83.347656 200.734375 86.160156 205.746094 C 88.277344 202.679688 95.9375 181.824219 102.601562 170.4375 C 133.355469 114.824219 171.960938 78.433594 224.839844 44.675781 C 235.183594 38.074219 243.375 32.992188 255.445312 30.808594 C 254.519531 34.09375 253.746094 37.046875 253.59375 41.570312 C 272.953125 33.128906 316.320312 13.605469 361.742188 19.285156 C 354.863281 30.457031 344.429688 27.167969 331.378906 29.316406 C 283.917969 37.125 183.640625 93.980469 169.1875 142.867188 C 180.304688 140.15625 232.539062 87.992188 333.167969 64.148438 C 367.367188 56.738281 411.570312 55.570312 443.132812 66.839844 C 450.074219 69.320312 458.554688 71.847656 462.957031 76.832031 C 469.765625 84.542969 472.617188 81.144531 487.347656 99.691406 L 494.90625 106.34375 C 499.597656 112.648438 493.339844 109.855469 500.953125 116.195312 C 504.59375 119.226562 507.144531 119.039062 508.359375 124.199219 C 484.714844 119.5625 459.507812 51.0625 322 91.886719 C 258.8125 110.644531 199.722656 156.128906 178.527344 222.234375 C 175.300781 224.136719 177.304688 223.667969 166.902344 223.570312 "/>
<path fill-rule="evenodd" fill="rgb(0%, 61.961365%, 89.019775%)" fill-opacity="1" d="M 439.277344 111.253906 C 444.601562 119.722656 442.65625 136.507812 439.152344 145.210938 C 428.554688 171.519531 395.320312 185.171875 386.589844 212.621094 C 383.019531 223.847656 385.621094 233.222656 379.582031 244.503906 C 374.222656 254.519531 368.238281 258.796875 362.757812 267.59375 C 357 276.839844 353.484375 278.726562 351.984375 297.167969 C 351.058594 308.609375 350.546875 325.617188 355.730469 333.945312 C 355.800781 327.070312 354.605469 326.316406 358.65625 322.511719 C 370.992188 310.921875 370.742188 308.125 387.460938 318.957031 C 394.480469 323.503906 404.628906 324.738281 408.5625 317.070312 C 411.835938 310.703125 410.601562 297.539062 410.707031 289.277344 C 410.910156 273.460938 416.554688 279.171875 418.589844 266.933594 C 420.585938 254.960938 419.757812 252.074219 427.261719 245.757812 C 434.515625 239.652344 436.648438 239.375 438.964844 227.378906 C 440.683594 218.464844 443.226562 211.105469 449.601562 208.542969 C 468.878906 218.359375 431.886719 244.269531 444.878906 260.128906 C 449.582031 265.863281 464.722656 268.683594 471.710938 263.828125 C 481.09375 257.308594 473.921875 246.191406 490.339844 247.023438 C 499.773438 260.039062 494.894531 287.929688 474.828125 288.519531 C 460.585938 288.9375 436.480469 270.175781 425.230469 281.609375 C 417.664062 289.304688 410.765625 318.765625 418.492188 331.550781 C 421.863281 337.132812 432.066406 344.210938 440.339844 339.230469 C 448.179688 334.507812 442.363281 324.683594 448.992188 315.835938 L 455.714844 315.800781 C 464.425781 330.914062 460.824219 349.164062 446.433594 355.308594 C 435.292969 360.0625 408.570312 351.46875 399.902344 346.734375 C 393.152344 343.046875 388.382812 338.707031 378.960938 338.101562 C 353.699219 336.46875 357.570312 363.832031 353.246094 370.652344 C 348.890625 377.519531 338.734375 373.921875 332.066406 372.089844 C 330.441406 361.382812 338.683594 347.125 334.117188 338.125 C 326.550781 323.214844 295.621094 340.1875 288.8125 303.839844 C 286.449219 291.210938 288.40625 280.210938 284.714844 267.242188 C 276.128906 237.09375 255.351562 248.753906 244.003906 228.414062 C 236.035156 214.136719 241.554688 193.96875 236.175781 174.535156 C 234.644531 169.003906 230.671875 162.328125 234.679688 158.191406 C 237.425781 155.28125 246.597656 155.230469 247.054688 172.644531 C 247.308594 182.445312 246.390625 193.421875 248.054688 203.023438 C 252.226562 227.078125 264.605469 223.214844 280.101562 232.332031 C 299.039062 243.46875 290.164062 257.773438 292.917969 280.230469 C 294.234375 290.953125 299.128906 295.125 304.964844 299.742188 C 310.445312 304.082031 315.191406 312.582031 321.261719 315.054688 C 318.71875 306.082031 308.097656 305.429688 308.734375 281.289062 C 309.765625 242.246094 322.671875 234.738281 288.613281 217.292969 C 282.386719 214.105469 265.730469 201.402344 272.511719 189.527344 C 277.695312 190.40625 276.601562 193.636719 281.09375 197.160156 C 284.273438 199.652344 288.101562 200.820312 292.066406 203.113281 C 298.175781 206.640625 304.941406 217.703125 314.253906 213.207031 C 319.988281 208.429688 317.753906 200.382812 313.792969 196.398438 C 310.121094 192.703125 304.410156 190.550781 300.113281 187.457031 C 285.175781 176.699219 294.640625 132.644531 295.613281 131.585938 C 298.875 128.046875 304.210938 130.472656 303.875 144.054688 C 303.507812 159.039062 303.238281 174.082031 314.425781 179.378906 C 352.808594 197.550781 296.109375 220.648438 327.0625 281.035156 C 330.429688 287.605469 331.230469 289.273438 333.5625 297.644531 C 334.097656 299.570312 339.058594 314.496094 339.648438 315.648438 C 341.328125 304.296875 337.574219 308.898438 343.132812 298.867188 C 350.332031 285.878906 338.367188 276.988281 357.679688 250.199219 C 367.195312 236.996094 380.152344 207.355469 370.527344 183.046875 C 365.386719 170.054688 361.296875 166.019531 354.015625 157.070312 C 345.070312 146.074219 346.226562 139.457031 339.507812 127.816406 C 331.671875 114.238281 322.542969 118.855469 313.882812 110.570312 C 308.855469 105.765625 300.160156 87.070312 307.28125 80.507812 C 313.679688 88.417969 319.441406 108.789062 332.4375 102.179688 C 344.273438 92.710938 329.402344 47.238281 339.066406 34.4375 C 354.195312 33.011719 351.515625 51.085938 348.125 62.339844 C 344.628906 73.957031 341.988281 76.15625 343.613281 91.449219 C 345.847656 112.480469 341.394531 120.035156 371.214844 154.449219 C 371.28125 149.964844 371.316406 150.121094 375.394531 140.953125 C 385.582031 118.0625 380.050781 113.734375 380.933594 92.566406 C 381.976562 67.5625 399.074219 65.933594 404.652344 45.660156 C 408.570312 31.421875 406.445312 25.824219 406.042969 11.316406 C 405.335938 -13.875 428.976562 10.761719 418.140625 46.058594 C 413.515625 61.121094 403.296875 69.09375 396.785156 77.902344 C 383.417969 95.992188 393.042969 106.828125 390.378906 126.351562 C 388.941406 136.890625 362.238281 194.082031 388.679688 185.683594 C 396.96875 183.050781 390.296875 175.148438 411.480469 155.15625 C 417.289062 149.671875 423.867188 145.371094 426.34375 134.316406 C 428.59375 124.269531 428.121094 110.207031 439.277344 111.253906 "/>
<path fill-rule="nonzero" fill="rgb(0%, 0%, 0%)" fill-opacity="1" d="M 227.398438 544.757812 L 222.6875 544.757812 C 222.6875 543.683594 221.75 540.320312 219.875 534.664062 L 206.984375 534.664062 C 205.136719 540.238281 204.214844 543.601562 204.214844 544.757812 L 199.703125 544.757812 C 199.703125 544.167969 201.625 539.050781 205.464844 529.417969 C 209.308594 519.792969 211.230469 514.5 211.230469 513.53125 L 216.414062 513.53125 C 216.414062 514.484375 218.242188 519.695312 221.902344 529.199219 C 225.570312 538.691406 227.398438 543.878906 227.398438 544.757812 Z M 218.84375 531.523438 C 215.34375 522.136719 213.59375 517.152344 213.59375 516.5625 L 213.347656 516.5625 C 213.347656 517.050781 211.542969 522.042969 207.921875 531.523438 Z M 255.660156 544.757812 L 251.34375 544.757812 C 249.917969 540.164062 248.875 537.128906 248.21875 535.648438 C 247.378906 533.773438 246.433594 532.570312 245.382812 532.023438 C 244.542969 531.597656 243.050781 531.375 240.894531 531.375 C 239.628906 531.375 238.5 531.390625 237.523438 531.425781 C 237.523438 536.589844 237.605469 541.03125 237.789062 544.757812 L 233.636719 544.757812 C 233.855469 539.796875 233.96875 534.335938 233.96875 528.355469 C 233.96875 522.730469 233.855469 517.789062 233.636719 513.53125 L 236.785156 513.53125 C 237.453125 513.53125 238.300781 513.515625 239.328125 513.46875 C 240.359375 513.417969 241.535156 513.394531 242.859375 513.394531 C 249.378906 513.394531 252.640625 515.808594 252.640625 520.636719 C 252.640625 524.648438 250.8125 527.472656 247.144531 529.101562 L 247.144531 529.335938 C 248.785156 529.871094 250.109375 531.089844 251.125 533.003906 C 251.96875 534.609375 253.480469 538.519531 255.660156 544.757812 Z M 248.820312 522.265625 C 248.820312 518.460938 246.425781 516.5625 241.632812 516.5625 C 239.917969 516.5625 238.484375 516.660156 237.316406 516.871094 C 237.425781 519.65625 237.476562 523.4375 237.476562 528.207031 C 238.371094 528.238281 239.222656 528.257812 240.046875 528.257812 C 245.894531 528.257812 248.820312 526.257812 248.820312 522.265625 Z M 281.71875 513.53125 L 281.609375 516.921875 C 278.660156 516.757812 275.609375 516.675781 272.46875 516.675781 C 272.441406 519.746094 272.425781 523.640625 272.425781 528.355469 C 272.425781 533.570312 272.5 539.035156 272.652344 544.757812 L 268.566406 544.757812 C 268.742188 539.304688 268.832031 533.839844 268.832031 528.355469 C 268.832031 523.707031 268.789062 519.808594 268.695312 516.675781 C 266.492188 516.675781 263.398438 516.773438 259.410156 516.960938 L 259.519531 513.53125 Z M 306.335938 541.140625 L 306.199219 544.757812 L 288.199219 544.757812 C 288.402344 539.796875 288.511719 534.335938 288.511719 528.355469 C 288.511719 522.730469 288.402344 517.789062 288.199219 513.53125 L 305.085938 513.53125 L 304.902344 517.109375 C 300.808594 516.921875 296.46875 516.824219 291.878906 516.824219 C 291.972656 519.304688 292.019531 522.652344 292.019531 526.867188 C 295.972656 526.867188 299.503906 526.773438 302.597656 526.578125 L 302.597656 530.15625 C 299.296875 530.007812 295.769531 529.933594 292.019531 529.933594 C 292.019531 534.042969 292.085938 537.898438 292.214844 541.5 C 297.164062 541.5 301.867188 541.375 306.335938 541.140625 Z M 327.949219 544.757812 L 323.710938 544.757812 C 323.929688 539.574219 324.046875 534.109375 324.046875 528.355469 C 324.046875 522.699219 323.929688 517.757812 323.710938 513.53125 L 327.949219 513.53125 C 327.742188 517.902344 327.636719 522.839844 327.636719 528.355469 C 327.636719 534.140625 327.742188 539.609375 327.949219 544.757812 Z M 360.5625 544.757812 L 357.4375 544.757812 C 357.4375 544.488281 354.996094 540.65625 350.109375 533.273438 C 345.003906 525.515625 342.089844 520.628906 341.382812 518.597656 L 341.152344 518.597656 C 341.417969 522.445312 341.554688 525.753906 341.554688 528.503906 C 341.554688 533.871094 341.671875 539.289062 341.890625 544.757812 L 338.140625 544.757812 C 338.394531 539.558594 338.523438 534.09375 338.523438 528.355469 C 338.523438 522.714844 338.394531 517.773438 338.140625 513.53125 L 342.425781 513.53125 C 342.425781 513.984375 344.675781 517.625 349.171875 524.46875 C 353.875 531.660156 356.558594 536.351562 357.214844 538.519531 L 357.4375 538.519531 C 357.183594 534.625 357.054688 531.308594 357.054688 528.59375 C 357.054688 522.683594 356.957031 517.65625 356.742188 513.53125 L 360.5625 513.53125 C 360.3125 517.773438 360.179688 522.714844 360.179688 528.355469 C 360.179688 534.09375 360.3125 539.558594 360.5625 544.757812 Z M 400.367188 540.941406 L 400.078125 544.519531 C 398.238281 545.109375 396.25 545.402344 394.09375 545.402344 C 388.96875 545.402344 385.117188 543.898438 382.542969 540.886719 C 379.964844 537.875 378.675781 534.191406 378.675781 529.84375 C 378.675781 525.285156 380.117188 521.355469 382.984375 518.058594 C 385.859375 514.753906 389.722656 513.109375 394.578125 513.109375 C 395.921875 513.109375 397.332031 513.320312 398.824219 513.753906 L 398.203125 517.566406 C 396.484375 516.988281 394.960938 516.699219 393.621094 516.699219 C 390.011719 516.699219 387.285156 517.902344 385.421875 520.300781 C 383.5625 522.699219 382.632812 525.628906 382.632812 529.101562 C 382.632812 532.636719 383.699219 535.664062 385.84375 538.183594 C 387.992188 540.714844 390.949219 541.972656 394.738281 541.972656 C 396.179688 541.972656 398.054688 541.628906 400.367188 540.941406 Z M 430.890625 513.53125 C 430.839844 516.5625 430.792969 519.375 430.761719 522.003906 C 430.730469 524.621094 430.714844 527.070312 430.714844 529.335938 C 430.714844 540.050781 426.773438 545.402344 418.898438 545.402344 C 416.847656 545.402344 415.085938 545.09375 413.617188 544.453125 C 412.152344 543.824219 410.949219 542.859375 410.003906 541.554688 C 409.058594 540.253906 408.363281 538.609375 407.921875 536.628906 C 407.488281 534.648438 407.265625 532.300781 407.265625 529.597656 C 407.265625 527.234375 407.25 524.722656 407.21875 522.0625 C 407.1875 519.402344 407.144531 516.5625 407.082031 513.53125 L 411.328125 513.53125 C 411.152344 519.628906 411.0625 524.402344 411.0625 527.855469 C 411.0625 530.628906 411.183594 532.898438 411.445312 534.648438 C 411.695312 536.398438 412.144531 537.855469 412.792969 539.027344 C 413.441406 540.191406 414.257812 541.015625 415.238281 541.507812 C 416.222656 542 417.472656 542.234375 418.992188 542.234375 C 420.585938 542.234375 421.878906 542 422.878906 541.507812 C 423.871094 541.015625 424.6875 540.214844 425.3125 539.085938 C 425.9375 537.957031 426.386719 536.515625 426.652344 534.746094 C 426.917969 532.980469 427.050781 530.664062 427.050781 527.804688 C 427.050781 526.113281 427.027344 524.082031 426.972656 521.726562 C 426.917969 519.367188 426.84375 516.636719 426.742188 513.53125 Z M 460.289062 540.941406 L 460 544.519531 C 458.160156 545.109375 456.171875 545.402344 454.015625 545.402344 C 448.890625 545.402344 445.039062 543.898438 442.464844 540.886719 C 439.886719 537.875 438.597656 534.191406 438.597656 529.84375 C 438.597656 525.285156 440.039062 521.355469 442.90625 518.058594 C 445.78125 514.753906 449.644531 513.109375 454.503906 513.109375 C 455.84375 513.109375 457.253906 513.320312 458.75 513.753906 L 458.125 517.566406 C 456.40625 516.988281 454.882812 516.699219 453.542969 516.699219 C 449.933594 516.699219 447.207031 517.902344 445.347656 520.300781 C 443.484375 522.699219 442.554688 525.628906 442.554688 529.101562 C 442.554688 532.636719 443.621094 535.664062 445.765625 538.183594 C 447.914062 540.714844 450.875 541.972656 454.664062 541.972656 C 456.101562 541.972656 457.980469 541.628906 460.289062 540.941406 Z M 471.738281 544.757812 L 467.5 544.757812 C 467.722656 539.574219 467.835938 534.109375 467.835938 528.355469 C 467.835938 522.699219 467.722656 517.757812 467.5 513.53125 L 471.738281 513.53125 C 471.535156 517.902344 471.425781 522.839844 471.425781 528.355469 C 471.425781 534.140625 471.535156 539.609375 471.738281 544.757812 Z M 504.355469 544.757812 L 501.226562 544.757812 C 501.226562 544.488281 498.789062 540.65625 493.902344 533.273438 C 488.792969 525.515625 485.882812 520.628906 485.171875 518.597656 L 484.945312 518.597656 C 485.210938 522.445312 485.347656 525.753906 485.347656 528.503906 C 485.347656 533.871094 485.460938 539.289062 485.683594 544.757812 L 481.933594 544.757812 C 482.183594 539.558594 482.3125 534.09375 482.3125 528.355469 C 482.3125 522.714844 482.183594 517.773438 481.933594 513.53125 L 486.214844 513.53125 C 486.214844 513.984375 488.464844 517.625 492.964844 524.46875 C 497.667969 531.660156 500.351562 536.351562 501.007812 538.519531 L 501.226562 538.519531 C 500.976562 534.625 500.847656 531.308594 500.847656 528.59375 C 500.847656 522.683594 500.746094 517.65625 500.535156 513.53125 L 504.355469 513.53125 C 504.101562 517.773438 503.972656 522.714844 503.972656 528.355469 C 503.972656 534.09375 504.101562 539.558594 504.355469 544.757812 Z M 538.277344 544.757812 L 533.566406 544.757812 C 533.566406 543.683594 532.628906 540.320312 530.753906 534.664062 L 517.863281 534.664062 C 516.019531 540.238281 515.09375 543.601562 515.09375 544.757812 L 510.582031 544.757812 C 510.582031 544.167969 512.503906 539.050781 516.34375 529.417969 C 520.1875 519.792969 522.109375 514.5 522.109375 513.53125 L 527.292969 513.53125 C 527.292969 514.484375 529.121094 519.695312 532.78125 529.199219 C 536.449219 538.691406 538.277344 543.878906 538.277344 544.757812 Z M 529.726562 531.523438 C 526.226562 522.136719 524.472656 517.152344 524.472656 516.5625 L 524.230469 516.5625 C 524.230469 517.050781 522.421875 522.042969 518.800781 531.523438 Z M 529.726562 531.523438 "/>
<path fill-rule="evenodd" fill="rgb(0%, 0%, 0%)" fill-opacity="1" d="M 488.039062 178.609375 C 494.960938 193.632812 506.960938 199.339844 523.199219 200.78125 C 528.601562 201.257812 531.875 202.644531 534.957031 202.851562 C 539.855469 203.179688 541.75 200.847656 546.261719 200.789062 C 549.929688 200.738281 554.582031 202.429688 559.0625 201.554688 C 569.835938 199.460938 559.070312 198.039062 567.027344 193.957031 C 570.878906 193.632812 571.757812 199.199219 575.6875 203.433594 C 579.085938 207.09375 582.207031 208.847656 587.679688 209.398438 C 575.703125 178.710938 583.035156 190.773438 590.574219 165.75 C 573.722656 165.0625 581.613281 178.894531 568.347656 178.183594 C 567.511719 170.546875 571.59375 165.214844 574.171875 161.125 C 564.804688 163.234375 567.695312 165.917969 552.84375 164.34375 C 536.640625 162.628906 520.933594 162.492188 506.164062 169.421875 C 500.671875 171.996094 492.332031 175.359375 488.039062 178.609375 Z M 502.503906 174.445312 C 503.710938 174.445312 504.691406 175.347656 504.691406 176.464844 C 504.691406 177.582031 503.710938 178.484375 502.503906 178.484375 C 501.296875 178.484375 500.316406 177.582031 500.316406 176.464844 C 500.316406 175.347656 501.296875 174.445312 502.503906 174.445312 "/>
<path fill-rule="evenodd" fill="rgb(0%, 0%, 0%)" fill-opacity="1" d="M 495.121094 311.332031 C 499.59375 321.042969 507.347656 324.730469 517.839844 325.660156 C 521.332031 325.972656 523.449219 326.867188 525.441406 327 C 528.605469 327.210938 529.832031 325.703125 532.746094 325.667969 C 535.117188 325.636719 538.121094 326.726562 541.019531 326.164062 C 547.980469 324.808594 541.023438 323.890625 546.164062 321.253906 C 548.65625 321.042969 549.222656 324.640625 551.761719 327.375 C 553.957031 329.738281 555.976562 330.875 559.511719 331.230469 C 551.773438 311.398438 556.511719 319.195312 561.382812 303.023438 C 550.492188 302.578125 555.59375 311.519531 547.019531 311.058594 C 546.476562 306.121094 549.117188 302.675781 550.785156 300.035156 C 544.730469 301.398438 546.597656 303.132812 537 302.113281 C 526.527344 301.003906 516.378906 300.917969 506.832031 305.394531 C 503.285156 307.058594 497.894531 309.234375 495.121094 311.332031 Z M 504.46875 308.640625 C 505.246094 308.640625 505.878906 309.226562 505.878906 309.945312 C 505.878906 310.667969 505.246094 311.253906 504.46875 311.253906 C 503.6875 311.253906 503.054688 310.667969 503.054688 309.945312 C 503.054688 309.226562 503.6875 308.640625 504.46875 308.640625 "/>
<path fill-rule="evenodd" fill="rgb(0%, 0%, 0%)" fill-opacity="1" d="M 534.316406 251.179688 C 537.367188 257.796875 542.652344 260.3125 549.800781 260.945312 C 552.179688 261.15625 553.625 261.765625 554.980469 261.859375 C 557.136719 262.003906 557.972656 260.976562 559.960938 260.949219 C 561.574219 260.929688 563.625 261.671875 565.597656 261.289062 C 570.339844 260.363281 565.601562 259.738281 569.105469 257.941406 C 570.800781 257.796875 571.1875 260.25 572.917969 262.113281 C 574.414062 263.726562 575.789062 264.5 578.199219 264.742188 C 572.925781 251.226562 576.15625 256.539062 579.476562 245.519531 C 572.054688 245.214844 575.53125 251.308594 569.6875 250.992188 C 569.316406 247.628906 571.117188 245.28125 572.253906 243.480469 C 568.125 244.410156 569.398438 245.59375 562.859375 244.898438 C 555.722656 244.144531 548.804688 244.082031 542.300781 247.136719 C 539.882812 248.269531 536.207031 249.75 534.316406 251.179688 Z M 540.6875 249.347656 C 541.21875 249.347656 541.648438 249.746094 541.648438 250.238281 C 541.648438 250.730469 541.21875 251.125 540.6875 251.125 C 540.15625 251.125 539.726562 250.730469 539.726562 250.238281 C 539.726562 249.746094 540.15625 249.347656 540.6875 249.347656 "/>
<path fill-rule="nonzero" fill="rgb(10.195923%, 10.195923%, 9.411621%)" fill-opacity="1" d="M 166.558594 356.804688 C 166.558594 359.242188 165.261719 360.625 162.667969 360.945312 C 160.078125 361.265625 158.003906 360.398438 156.449219 358.34375 C 155.582031 354.492188 154.890625 350.578125 154.375 346.597656 C 152.371094 331.222656 144.707031 328.175781 131.558594 326.953125 C 116.605469 325.566406 90.648438 341.398438 78.414062 349.871094 C 58.433594 363.707031 38.390625 380.277344 27.988281 402.832031 C 9.972656 441.902344 32.648438 491.148438 85.15625 466.769531 C 98.816406 460.429688 118.144531 447.289062 129.617188 437.402344 C 131.777344 435.539062 134.324219 433.453125 137.261719 431.140625 C 142.097656 427.921875 149.445312 432.300781 144.78125 436.726562 C 137.867188 443.019531 130.824219 449.214844 123.652344 455.3125 C 106.742188 469.691406 81.996094 484.222656 61.691406 486.03125 C 1.035156 491.429688 -11.394531 430.082031 12.175781 391.566406 C 23.28125 373.414062 37.28125 361.488281 54.5625 347.847656 C 63.1875 341.042969 71.175781 337.183594 81.523438 331.671875 C 95.957031 323.988281 117.121094 315.214844 133.503906 315.589844 C 145.003906 315.855469 155.363281 320.351562 161.890625 330.804688 C 164.3125 334.785156 165.519531 339.023438 165.519531 343.515625 C 165.519531 348.007812 165.867188 352.4375 166.558594 356.804688 "/>
<path fill-rule="nonzero" fill="rgb(10.195923%, 10.195923%, 9.411621%)" fill-opacity="1" d="M 241.808594 384.40625 C 246.207031 384.40625 248.851562 387.332031 246.3125 390.015625 C 245.582031 390.785156 244.40625 391.230469 242.78125 391.347656 C 239.046875 391.941406 235.964844 392.386719 233.53125 392.683594 C 225.375 393.675781 219.601562 395.941406 211.859375 399.714844 C 196.539062 407.179688 178.328125 422.523438 176.429688 440.5625 C 176.023438 444.417969 176.550781 448.214844 178.011719 451.953125 C 180.265625 457.714844 185.9375 463.21875 192.257812 465.390625 C 215.308594 473.308594 238.316406 451.132812 249.113281 437.980469 C 252.035156 434.421875 254.429688 430.710938 256.296875 426.855469 C 261.5625 415.980469 261.132812 408.605469 249.355469 404.964844 C 247.246094 404.3125 245.054688 403.6875 242.78125 403.097656 C 237.371094 401.296875 239.273438 394.816406 246.191406 396.332031 C 249.4375 397.042969 252.765625 397.578125 256.175781 397.933594 C 266.738281 399.039062 271.613281 406.757812 271.878906 416.710938 C 272.222656 429.414062 265.011719 440.308594 257.84375 450.066406 C 214.695312 508.8125 138.605469 473.964844 162.917969 426.054688 C 170.464844 411.175781 190.207031 397.597656 205.527344 390.992188 C 215.402344 386.738281 223.039062 385.933594 233.042969 385.121094 C 235.964844 384.882812 238.886719 384.644531 241.808594 384.40625 "/>
<path fill-rule="nonzero" fill="rgb(10.195923%, 10.195923%, 9.411621%)" fill-opacity="1" d="M 311.21875 388.507812 C 328.839844 365.496094 313.640625 406.371094 312.429688 410.246094 C 310.167969 417.492188 308.226562 425.035156 306.613281 432.875 C 318.585938 418.074219 336.863281 404.996094 354.847656 398.21875 C 361.3125 395.785156 367.613281 394.449219 373.753906 394.210938 C 402.558594 392.144531 406.820312 415.929688 393.390625 408.285156 C 380.320312 400.855469 373.964844 400.527344 359.574219 408.375 C 347.390625 415.023438 336.785156 422.570312 328.914062 431.71875 C 322.933594 438.667969 317.925781 446.597656 313.882812 455.503906 C 310.933594 462.355469 306.417969 476.390625 300.066406 480.808594 C 296.996094 482.828125 293.847656 483.539062 290.613281 482.945312 C 279.328125 480.871094 284.191406 463.621094 285.523438 455.59375 C 289.28125 432.976562 298.554688 407.480469 311.21875 388.507812 "/>
<path fill-rule="nonzero" fill="rgb(10.195923%, 10.195923%, 9.411621%)" fill-opacity="1" d="M 695.015625 392.222656 C 700.433594 389.285156 705.546875 393.777344 701.757812 397.09375 C 701.566406 397.261719 654.628906 493.324219 703.152344 459 C 714.695312 450.835938 725.292969 440.710938 736.875 432.707031 C 740.410156 430.265625 747.539062 425.945312 751.40625 427.25 C 755.117188 428.5 755.375 431.707031 751.523438 433.378906 C 745.363281 436.058594 737.421875 443.882812 732.105469 449.089844 C 721.867188 459.113281 711.445312 470.6875 698.617188 477.226562 C 691.046875 481.089844 670.921875 484.578125 665.714844 475.546875 C 662.230469 469.507812 662.949219 461.550781 664.78125 454.546875 C 665.074219 453.441406 665.371094 452.355469 665.671875 451.292969 C 660.5625 456.988281 655.042969 462.429688 648.757812 466.980469 C 641.859375 471.972656 630.128906 477.652344 622.011719 480.757812 C 608.855469 485.800781 594.339844 488.214844 582.246094 484 C 566.933594 478.664062 559.625 464.675781 559.238281 450.007812 C 554.566406 453.945312 549.636719 457.5625 545.484375 460.339844 C 530.90625 470.101562 506.84375 483.570312 488.507812 481.675781 C 479.371094 480.734375 471.464844 471.40625 470.835938 462.523438 C 459.101562 472.058594 448.824219 478.648438 433.046875 480.753906 C 373.378906 488.703125 386.882812 432.359375 422.699219 407.003906 C 444.3125 391.699219 467.4375 389.605469 492.929688 392.472656 C 499.332031 393.398438 497.238281 399.492188 491.066406 399.023438 C 485.003906 398.558594 480.511719 397.25 474.324219 397.679688 C 466.726562 398.128906 459.558594 399.695312 452.8125 402.382812 C 440.027344 407.480469 428.859375 415.46875 420.488281 425.902344 C 416.535156 430.828125 413.550781 435.757812 411.535156 440.6875 C 408.730469 447.894531 406.210938 460.167969 412.699219 466.222656 C 415.421875 468.761719 420.144531 469.285156 423.859375 469.246094 C 438.105469 469.089844 451.636719 460.019531 461.183594 450.261719 C 466.246094 445.089844 470.78125 440.121094 474.789062 434.722656 C 478.921875 429.15625 483.734375 415.875 489.207031 414.394531 C 492.726562 413.441406 496.621094 414.214844 499.089844 416.832031 C 500.253906 418.0625 500.835938 419.574219 500.835938 421.367188 C 495.691406 434.640625 483.316406 450.546875 487.113281 465.296875 C 487.734375 467.703125 489.128906 469.582031 491.300781 470.925781 C 494.917969 473.164062 506.792969 469.371094 510.71875 467.902344 C 518.515625 464.980469 520.285156 464.746094 528.855469 460.171875 C 538.558594 454.996094 548.371094 448.394531 556.414062 441.191406 C 557.972656 439.792969 559.394531 438.414062 560.679688 437.054688 C 560.804688 436.542969 560.941406 436.035156 561.085938 435.53125 C 600.152344 298.867188 724.882812 288.75 683.175781 348.964844 C 656.871094 386.78125 619.394531 417.832031 576.664062 440.070312 C 575.683594 444.183594 575.785156 447.601562 575.734375 451.742188 C 575.582031 458.117188 576.703125 463.117188 579.109375 466.738281 C 584.210938 474.429688 592.523438 476.71875 601.898438 475.816406 C 617.21875 474.335938 634.5 466.347656 645.964844 456.605469 C 654.1875 449.617188 660.140625 443.097656 667.476562 435.695312 C 669.277344 433.878906 671.300781 431.886719 673.546875 429.722656 C 675.417969 425.425781 677.421875 421.113281 679.550781 416.496094 C 682.96875 409.09375 684.800781 405.988281 688.386719 399.445312 C 689.859375 396.757812 692.070312 394.351562 695.015625 392.222656 Z M 580.492188 423.386719 C 622.839844 397.011719 639.761719 387.519531 668.058594 344.589844 C 700.546875 293.117188 595.292969 352.429688 580.492188 423.386719 "/>
<path fill-rule="nonzero" fill="rgb(10.195923%, 10.195923%, 9.411621%)" fill-opacity="1" d="M 725.503906 348.878906 C 726.015625 347.722656 726.320312 346.667969 727.382812 345.925781 C 728.445312 345.1875 729.613281 344.726562 730.882812 344.546875 C 732.15625 344.367188 733.265625 344.53125 734.207031 345.035156 C 737.035156 346.550781 737.570312 354.050781 736.121094 357.144531 C 733.296875 363.164062 723.949219 369.867188 714.265625 372.570312 C 709.410156 373.921875 704.835938 374.796875 700.546875 375.1875 C 697.5 375.53125 695.757812 374.851562 695.320312 373.148438 C 694.882812 371.445312 695.832031 369.433594 698.820312 368.449219 C 708.542969 365.234375 717.335938 360.765625 724.671875 350.761719 Z M 725.503906 348.878906 "/>
</svg>
