<?xml version="1.0" encoding="UTF-8"?>
<svg xmlns="http://www.w3.org/2000/svg" width="611" height="620" viewBox="48 7 611 620" role="img" aria-label="Elemento luna Coralì">
  <title>Elemento luna Coralì</title>
  <path fill-rule="evenodd" fill="rgb(89.019775%, 89.019775%, 89.411926%)" fill-opacity="1" d="M 166.902344 223.570312 C 161.929688 210.277344 166.3125 215.773438 159.816406 213.8125 C 157.183594 219.742188 165.324219 240.914062 169.632812 246.707031 L 177.644531 248.832031 C 173.117188 251.546875 163.375 268.132812 158.171875 267.332031 C 156.820312 291.5 149.058594 361.09375 206.5625 404.445312 C 210.191406 397.621094 194.898438 376.304688 204.414062 381.664062 C 212.25 386.074219 228.058594 408.953125 229.210938 420.839844 C 245.328125 431.550781 257.796875 437.136719 275.703125 444.378906 C 283.671875 447.601562 321.269531 462.480469 326.5 460.035156 C 318.296875 453.328125 289.195312 438.015625 277.894531 430.996094 C 282.113281 428.738281 336.453125 447.007812 346.660156 451.722656 C 383.667969 468.503906 386.128906 464.207031 427.539062 463.78125 C 448.992188 463.5625 453.640625 463.332031 466.234375 446.011719 C 473.175781 436.460938 479.664062 444.03125 495.546875 438.273438 C 500.378906 436.519531 504.648438 435.6875 506.03125 430.207031 C 509.542969 433.71875 506.992188 433.066406 509.695312 438.046875 C 520.679688 439.574219 521.554688 431.175781 519.007812 420.667969 C 524.878906 420.230469 534.929688 410.773438 535.082031 405.886719 C 534.484375 402.355469 535.191406 399.152344 536.183594 395.148438 C 537.140625 390.511719 548.015625 385.726562 550.160156 377.90625 C 569.167969 355.132812 569.625 366.023438 582.757812 359.210938 C 606.847656 346.714844 598.863281 307.382812 609.027344 303.089844 C 613.828125 317.160156 610.066406 354.636719 609.414062 374.417969 C 609.222656 380.257812 609.589844 382.761719 611.683594 385.25 C 618.070312 372.417969 633.636719 352.523438 636.769531 357.207031 C 652.011719 379.980469 608.441406 430.851562 597.066406 445.03125 C 593.597656 449.359375 585.796875 455.292969 584.78125 461.414062 C 593.082031 461.78125 601.019531 457.398438 609.621094 453.59375 C 613.292969 451.964844 613.296875 449.597656 618.074219 451.324219 C 612.488281 459.722656 604.542969 463.925781 601.175781 473.863281 C 608.371094 472.355469 607.429688 470.683594 613.027344 470.199219 C 605.878906 503.195312 545.789062 522.261719 562.550781 535.160156 C 567.921875 539.125 576.617188 529.71875 589.359375 531.285156 C 586.933594 566.363281 493.773438 587.214844 484.429688 592.273438 C 472.03125 598.980469 417.429688 610.304688 404.671875 612.3125 C 355.332031 620.074219 306.535156 607.335938 262.90625 592.546875 C 245.757812 586.734375 227.277344 579.917969 211.957031 569.320312 L 168.097656 539.902344 C 141.144531 517.621094 115.800781 487.449219 100.539062 455.285156 C 79.921875 411.832031 77.101562 409.78125 65.285156 356.421875 C 54.808594 309.128906 60.246094 238.621094 78.792969 194.078125 C 81.207031 188.28125 82.140625 185.023438 85.496094 182.085938 C 85.640625 189.1875 83.347656 200.734375 86.160156 205.746094 C 88.277344 202.679688 95.9375 181.824219 102.601562 170.4375 C 133.355469 114.824219 171.960938 78.433594 224.839844 44.675781 C 235.183594 38.074219 243.375 32.992188 255.445312 30.808594 C 254.519531 34.09375 253.746094 37.046875 253.59375 41.570312 C 272.953125 33.128906 316.320312 13.605469 361.742188 19.285156 C 354.863281 30.457031 344.429688 27.167969 331.378906 29.316406 C 283.917969 37.125 183.640625 93.980469 169.1875 142.867188 C 180.304688 140.15625 232.539062 87.992188 333.167969 64.148438 C 367.367188 56.738281 411.570312 55.570312 443.132812 66.839844 C 450.074219 69.320312 458.554688 71.847656 462.957031 76.832031 C 469.765625 84.542969 472.617188 81.144531 487.347656 99.691406 L 494.90625 106.34375 C 499.597656 112.648438 493.339844 109.855469 500.953125 116.195312 C 504.59375 119.226562 507.144531 119.039062 508.359375 124.199219 C 484.714844 119.5625 459.507812 51.0625 322 91.886719 C 258.8125 110.644531 199.722656 156.128906 178.527344 222.234375 C 175.300781 224.136719 177.304688 223.667969 166.902344 223.570312 "/>
</svg>
