<?xml version="1.0" encoding="UTF-8"?>
<svg xmlns="http://www.w3.org/2000/svg" width="115" height="61" viewBox="482 155 115 61" role="img" aria-label="Pesce grande Coralì">
  <title>Pesce grande Coralì</title>
  <path fill-rule="evenodd" fill="rgb(0%, 0%, 0%)" fill-opacity="1" d="M 488.039062 178.609375 C 494.960938 193.632812 506.960938 199.339844 523.199219 200.78125 C 528.601562 201.257812 531.875 202.644531 534.957031 202.851562 C 539.855469 203.179688 541.75 200.847656 546.261719 200.789062 C 549.929688 200.738281 554.582031 202.429688 559.0625 201.554688 C 569.835938 199.460938 559.070312 198.039062 567.027344 193.957031 C 570.878906 193.632812 571.757812 199.199219 575.6875 203.433594 C 579.085938 207.09375 582.207031 208.847656 587.679688 209.398438 C 575.703125 178.710938 583.035156 190.773438 590.574219 165.75 C 573.722656 165.0625 581.613281 178.894531 568.347656 178.183594 C 567.511719 170.546875 571.59375 165.214844 574.171875 161.125 C 564.804688 163.234375 567.695312 165.917969 552.84375 164.34375 C 536.640625 162.628906 520.933594 162.492188 506.164062 169.421875 C 500.671875 171.996094 492.332031 175.359375 488.039062 178.609375 Z M 502.503906 174.445312 C 503.710938 174.445312 504.691406 175.347656 504.691406 176.464844 C 504.691406 177.582031 503.710938 178.484375 502.503906 178.484375 C 501.296875 178.484375 500.316406 177.582031 500.316406 176.464844 C 500.316406 175.347656 501.296875 174.445312 502.503906 174.445312 "/>
</svg>
