<?xml version="1.0" encoding="UTF-8"?>
<svg xmlns="http://www.w3.org/2000/svg" width="79" height="44" viewBox="489 294 79 44" role="img" aria-label="Pesce medio Coralì">
  <title>Pesce medio Coralì</title>
  <path fill-rule="evenodd" fill="rgb(0%, 0%, 0%)" fill-opacity="1" d="M 495.121094 311.332031 C 499.59375 321.042969 507.347656 324.730469 517.839844 325.660156 C 521.332031 325.972656 523.449219 326.867188 525.441406 327 C 528.605469 327.210938 529.832031 325.703125 532.746094 325.667969 C 535.117188 325.636719 538.121094 326.726562 541.019531 326.164062 C 547.980469 324.808594 541.023438 323.890625 546.164062 321.253906 C 548.65625 321.042969 549.222656 324.640625 551.761719 327.375 C 553.957031 329.738281 555.976562 330.875 559.511719 331.230469 C 551.773438 311.398438 556.511719 319.195312 561.382812 303.023438 C 550.492188 302.578125 555.59375 311.519531 547.019531 311.058594 C 546.476562 306.121094 549.117188 302.675781 550.785156 300.035156 C 544.730469 301.398438 546.597656 303.132812 537 302.113281 C 526.527344 301.003906 516.378906 300.917969 506.832031 305.394531 C 503.285156 307.058594 497.894531 309.234375 495.121094 311.332031 Z M 504.46875 308.640625 C 505.246094 308.640625 505.878906 309.226562 505.878906 309.945312 C 505.878906 310.667969 505.246094 311.253906 504.46875 311.253906 C 503.6875 311.253906 503.054688 310.667969 503.054688 309.945312 C 503.054688 309.226562 503.6875 308.640625 504.46875 308.640625 "/>
</svg>
