<?xml version="1.0" encoding="UTF-8"?>
<svg xmlns="http://www.w3.org/2000/svg" width="115" height="183" viewBox="482 155 115 183" role="img" aria-label="Elementi pesci Coralì">
  <title>Elementi pesci Coralì</title>
  <path fill-rule="evenodd" fill="rgb(0%, 0%, 0%)" fill-opacity="1" d="M 488.039062 178.609375 C 494.960938 193.632812 506.960938 199.339844 523.199219 200.78125 C 528.601562 201.257812 531.875 202.644531 534.957031 202.851562 C 539.855469 203.179688 541.75 200.847656 546.261719 200.789062 C 549.929688 200.738281 554.582031 202.429688 559.0625 201.554688 C 569.835938 199.460938 559.070312 198.039062 567.027344 193.957031 C 570.878906 193.632812 571.757812 199.199219 575.6875 203.433594 C 579.085938 207.09375 582.207031 208.847656 587.679688 209.398438 C 575.703125 178.710938 583.035156 190.773438 590.574219 165.75 C 573.722656 165.0625 581.613281 178.894531 568.347656 178.183594 C 567.511719 170.546875 571.59375 165.214844 574.171875 161.125 C 564.804688 163.234375 567.695312 165.917969 552.84375 164.34375 C 536.640625 162.628906 520.933594 162.492188 506.164062 169.421875 C 500.671875 171.996094 492.332031 175.359375 488.039062 178.609375 Z M 502.503906 174.445312 C 503.710938 174.445312 504.691406 175.347656 504.691406 176.464844 C 504.691406 177.582031 503.710938 178.484375 502.503906 178.484375 C 501.296875 178.484375 500.316406 177.582031 500.316406 176.464844 C 500.316406 175.347656 501.296875 174.445312 502.503906 174.445312 "/>
  <path fill-rule="evenodd" fill="rgb(0%, 0%, 0%)" fill-opacity="1" d="M 495.121094 311.332031 C 499.59375 321.042969 507.347656 324.730469 517.839844 325.660156 C 521.332031 325.972656 523.449219 326.867188 525.441406 327 C 528.605469 327.210938 529.832031 325.703125 532.746094 325.667969 C 535.117188 325.636719 538.121094 326.726562 541.019531 326.164062 C 547.980469 324.808594 541.023438 323.890625 546.164062 321.253906 C 548.65625 321.042969 549.222656 324.640625 551.761719 327.375 C 553.957031 329.738281 555.976562 330.875 559.511719 331.230469 C 551.773438 311.398438 556.511719 319.195312 561.382812 303.023438 C 550.492188 302.578125 555.59375 311.519531 547.019531 311.058594 C 546.476562 306.121094 549.117188 302.675781 550.785156 300.035156 C 544.730469 301.398438 546.597656 303.132812 537 302.113281 C 526.527344 301.003906 516.378906 300.917969 506.832031 305.394531 C 503.285156 307.058594 497.894531 309.234375 495.121094 311.332031 Z M 504.46875 308.640625 C 505.246094 308.640625 505.878906 309.226562 505.878906 309.945312 C 505.878906 310.667969 505.246094 311.253906 504.46875 311.253906 C 503.6875 311.253906 503.054688 310.667969 503.054688 309.945312 C 503.054688 309.226562 503.6875 308.640625 504.46875 308.640625 "/>
  <path fill-rule="evenodd" fill="rgb(0%, 0%, 0%)" fill-opacity="1" d="M 534.316406 251.179688 C 537.367188 257.796875 542.652344 260.3125 549.800781 260.945312 C 552.179688 261.15625 553.625 261.765625 554.980469 261.859375 C 557.136719 262.003906 557.972656 260.976562 559.960938 260.949219 C 561.574219 260.929688 563.625 261.671875 565.597656 261.289062 C 570.339844 260.363281 565.601562 259.738281 569.105469 257.941406 C 570.800781 257.796875 571.1875 260.25 572.917969 262.113281 C 574.414062 263.726562 575.789062 264.5 578.199219 264.742188 C 572.925781 251.226562 576.15625 256.539062 579.476562 245.519531 C 572.054688 245.214844 575.53125 251.308594 569.6875 250.992188 C 569.316406 247.628906 571.117188 245.28125 572.253906 243.480469 C 568.125 244.410156 569.398438 245.59375 562.859375 244.898438 C 555.722656 244.144531 548.804688 244.082031 542.300781 247.136719 C 539.882812 248.269531 536.207031 249.75 534.316406 251.179688 Z M 540.6875 249.347656 C 541.21875 249.347656 541.648438 249.746094 541.648438 250.238281 C 541.648438 250.730469 541.21875 251.125 540.6875 251.125 C 540.15625 251.125 539.726562 250.730469 539.726562 250.238281 C 539.726562 249.746094 540.15625 249.347656 540.6875 249.347656 "/>
</svg>
