<?xml version="1.0" encoding="UTF-8"?>
<svg xmlns="http://www.w3.org/2000/svg" width="58" height="34" viewBox="528 237 58 34" role="img" aria-label="Pesce piccolo Coralì">
  <title>Pesce piccolo Coralì</title>
  <path fill-rule="evenodd" fill="rgb(0%, 0%, 0%)" fill-opacity="1" d="M 534.316406 251.179688 C 537.367188 257.796875 542.652344 260.3125 549.800781 260.945312 C 552.179688 261.15625 553.625 261.765625 554.980469 261.859375 C 557.136719 262.003906 557.972656 260.976562 559.960938 260.949219 C 561.574219 260.929688 563.625 261.671875 565.597656 261.289062 C 570.339844 260.363281 565.601562 259.738281 569.105469 257.941406 C 570.800781 257.796875 571.1875 260.25 572.917969 262.113281 C 574.414062 263.726562 575.789062 264.5 578.199219 264.742188 C 572.925781 251.226562 576.15625 256.539062 579.476562 245.519531 C 572.054688 245.214844 575.53125 251.308594 569.6875 250.992188 C 569.316406 247.628906 571.117188 245.28125 572.253906 243.480469 C 568.125 244.410156 569.398438 245.59375 562.859375 244.898438 C 555.722656 244.144531 548.804688 244.082031 542.300781 247.136719 C 539.882812 248.269531 536.207031 249.75 534.316406 251.179688 Z M 540.6875 249.347656 C 541.21875 249.347656 541.648438 249.746094 541.648438 250.238281 C 541.648438 250.730469 541.21875 251.125 540.6875 251.125 C 540.15625 251.125 539.726562 250.730469 539.726562 250.238281 C 539.726562 249.746094 540.15625 249.347656 540.6875 249.347656 "/>
</svg>
