<?xml version="1.0" encoding="UTF-8"?>
<svg xmlns="http://www.w3.org/2000/svg" width="780" height="233" viewBox="-18 282 780 233" role="img" aria-label="Scritta Coralì">
  <title>Scritta Coralì</title>
  <path fill-rule="nonzero" fill="rgb(10.195923%, 10.195923%, 9.411621%)" fill-opacity="1" d="M 166.558594 356.804688 C 166.558594 359.242188 165.261719 360.625 162.667969 360.945312 C 160.078125 361.265625 158.003906 360.398438 156.449219 358.34375 C 155.582031 354.492188 154.890625 350.578125 154.375 346.597656 C 152.371094 331.222656 144.707031 328.175781 131.558594 326.953125 C 116.605469 325.566406 90.648438 341.398438 78.414062 349.871094 C 58.433594 363.707031 38.390625 380.277344 27.988281 402.832031 C 9.972656 441.902344 32.648438 491.148438 85.15625 466.769531 C 98.816406 460.429688 118.144531 447.289062 129.617188 437.402344 C 131.777344 435.539062 134.324219 433.453125 137.261719 431.140625 C 142.097656 427.921875 149.445312 432.300781 144.78125 436.726562 C 137.867188 443.019531 130.824219 449.214844 123.652344 455.3125 C 106.742188 469.691406 81.996094 484.222656 61.691406 486.03125 C 1.035156 491.429688 -11.394531 430.082031 12.175781 391.566406 C 23.28125 373.414062 37.28125 361.488281 54.5625 347.847656 C 63.1875 341.042969 71.175781 337.183594 81.523438 331.671875 C 95.957031 323.988281 117.121094 315.214844 133.503906 315.589844 C 145.003906 315.855469 155.363281 320.351562 161.890625 330.804688 C 164.3125 334.785156 165.519531 339.023438 165.519531 343.515625 C 165.519531 348.007812 165.867188 352.4375 166.558594 356.804688 "/>
  <path fill-rule="nonzero" fill="rgb(10.195923%, 10.195923%, 9.411621%)" fill-opacity="1" d="M 241.808594 384.40625 C 246.207031 384.40625 248.851562 387.332031 246.3125 390.015625 C 245.582031 390.785156 244.40625 391.230469 242.78125 391.347656 C 239.046875 391.941406 235.964844 392.386719 233.53125 392.683594 C 225.375 393.675781 219.601562 395.941406 211.859375 399.714844 C 196.539062 407.179688 178.328125 422.523438 176.429688 440.5625 C 176.023438 444.417969 176.550781 448.214844 178.011719 451.953125 C 180.265625 457.714844 185.9375 463.21875 192.257812 465.390625 C 215.308594 473.308594 238.316406 451.132812 249.113281 437.980469 C 252.035156 434.421875 254.429688 430.710938 256.296875 426.855469 C 261.5625 415.980469 261.132812 408.605469 249.355469 404.964844 C 247.246094 404.3125 245.054688 403.6875 242.78125 403.097656 C 237.371094 401.296875 239.273438 394.816406 246.191406 396.332031 C 249.4375 397.042969 252.765625 397.578125 256.175781 397.933594 C 266.738281 399.039062 271.613281 406.757812 271.878906 416.710938 C 272.222656 429.414062 265.011719 440.308594 257.84375 450.066406 C 214.695312 508.8125 138.605469 473.964844 162.917969 426.054688 C 170.464844 411.175781 190.207031 397.597656 205.527344 390.992188 C 215.402344 386.738281 223.039062 385.933594 233.042969 385.121094 C 235.964844 384.882812 238.886719 384.644531 241.808594 384.40625 "/>
  <path fill-rule="nonzero" fill="rgb(10.195923%, 10.195923%, 9.411621%)" fill-opacity="1" d="M 311.21875 388.507812 C 328.839844 365.496094 313.640625 406.371094 312.429688 410.246094 C 310.167969 417.492188 308.226562 425.035156 306.613281 432.875 C 318.585938 418.074219 336.863281 404.996094 354.847656 398.21875 C 361.3125 395.785156 367.613281 394.449219 373.753906 394.210938 C 402.558594 392.144531 406.820312 415.929688 393.390625 408.285156 C 380.320312 400.855469 373.964844 400.527344 359.574219 408.375 C 347.390625 415.023438 336.785156 422.570312 328.914062 431.71875 C 322.933594 438.667969 317.925781 446.597656 313.882812 455.503906 C 310.933594 462.355469 306.417969 476.390625 300.066406 480.808594 C 296.996094 482.828125 293.847656 483.539062 290.613281 482.945312 C 279.328125 480.871094 284.191406 463.621094 285.523438 455.59375 C 289.28125 432.976562 298.554688 407.480469 311.21875 388.507812 "/>
  <path fill-rule="nonzero" fill="rgb(10.195923%, 10.195923%, 9.411621%)" fill-opacity="1" d="M 695.015625 392.222656 C 700.433594 389.285156 705.546875 393.777344 701.757812 397.09375 C 701.566406 397.261719 654.628906 493.324219 703.152344 459 C 714.695312 450.835938 725.292969 440.710938 736.875 432.707031 C 740.410156 430.265625 747.539062 425.945312 751.40625 427.25 C 755.117188 428.5 755.375 431.707031 751.523438 433.378906 C 745.363281 436.058594 737.421875 443.882812 732.105469 449.089844 C 721.867188 459.113281 711.445312 470.6875 698.617188 477.226562 C 691.046875 481.089844 670.921875 484.578125 665.714844 475.546875 C 662.230469 469.507812 662.949219 461.550781 664.78125 454.546875 C 665.074219 453.441406 665.371094 452.355469 665.671875 451.292969 C 660.5625 456.988281 655.042969 462.429688 648.757812 466.980469 C 641.859375 471.972656 630.128906 477.652344 622.011719 480.757812 C 608.855469 485.800781 594.339844 488.214844 582.246094 484 C 566.933594 478.664062 559.625 464.675781 559.238281 450.007812 C 554.566406 453.945312 549.636719 457.5625 545.484375 460.339844 C 530.90625 470.101562 506.84375 483.570312 488.507812 481.675781 C 479.371094 480.734375 471.464844 471.40625 470.835938 462.523438 C 459.101562 472.058594 448.824219 478.648438 433.046875 480.753906 C 373.378906 488.703125 386.882812 432.359375 422.699219 407.003906 C 444.3125 391.699219 467.4375 389.605469 492.929688 392.472656 C 499.332031 393.398438 497.238281 399.492188 491.066406 399.023438 C 485.003906 398.558594 480.511719 397.25 474.324219 397.679688 C 466.726562 398.128906 459.558594 399.695312 452.8125 402.382812 C 440.027344 407.480469 428.859375 415.46875 420.488281 425.902344 C 416.535156 430.828125 413.550781 435.757812 411.535156 440.6875 C 408.730469 447.894531 406.210938 460.167969 412.699219 466.222656 C 415.421875 468.761719 420.144531 469.285156 423.859375 469.246094 C 438.105469 469.089844 451.636719 460.019531 461.183594 450.261719 C 466.246094 445.089844 470.78125 440.121094 474.789062 434.722656 C 478.921875 429.15625 483.734375 415.875 489.207031 414.394531 C 492.726562 413.441406 496.621094 414.214844 499.089844 416.832031 C 500.253906 418.0625 500.835938 419.574219 500.835938 421.367188 C 495.691406 434.640625 483.316406 450.546875 487.113281 465.296875 C 487.734375 467.703125 489.128906 469.582031 491.300781 470.925781 C 494.917969 473.164062 506.792969 469.371094 510.71875 467.902344 C 518.515625 464.980469 520.285156 464.746094 528.855469 460.171875 C 538.558594 454.996094 548.371094 448.394531 556.414062 441.191406 C 557.972656 439.792969 559.394531 438.414062 560.679688 437.054688 C 560.804688 436.542969 560.941406 436.035156 561.085938 435.53125 C 600.152344 298.867188 724.882812 288.75 683.175781 348.964844 C 656.871094 386.78125 619.394531 417.832031 576.664062 440.070312 C 575.683594 444.183594 575.785156 447.601562 575.734375 451.742188 C 575.582031 458.117188 576.703125 463.117188 579.109375 466.738281 C 584.210938 474.429688 592.523438 476.71875 601.898438 475.816406 C 617.21875 474.335938 634.5 466.347656 645.964844 456.605469 C 654.1875 449.617188 660.140625 443.097656 667.476562 435.695312 C 669.277344 433.878906 671.300781 431.886719 673.546875 429.722656 C 675.417969 425.425781 677.421875 421.113281 679.550781 416.496094 C 682.96875 409.09375 684.800781 405.988281 688.386719 399.445312 C 689.859375 396.757812 692.070312 394.351562 695.015625 392.222656 Z M 580.492188 423.386719 C 622.839844 397.011719 639.761719 387.519531 668.058594 344.589844 C 700.546875 293.117188 595.292969 352.429688 580.492188 423.386719 "/>
  <path fill-rule="nonzero" fill="rgb(10.195923%, 10.195923%, 9.411621%)" fill-opacity="1" d="M 725.503906 348.878906 C 726.015625 347.722656 726.320312 346.667969 727.382812 345.925781 C 728.445312 345.1875 729.613281 344.726562 730.882812 344.546875 C 732.15625 344.367188 733.265625 344.53125 734.207031 345.035156 C 737.035156 346.550781 737.570312 354.050781 736.121094 357.144531 C 733.296875 363.164062 723.949219 369.867188 714.265625 372.570312 C 709.410156 373.921875 704.835938 374.796875 700.546875 375.1875 C 697.5 375.53125 695.757812 374.851562 695.320312 373.148438 C 694.882812 371.445312 695.832031 369.433594 698.820312 368.449219 C 708.542969 365.234375 717.335938 360.765625 724.671875 350.761719 Z M 725.503906 348.878906 "/>
</svg>
