<?xml version="1.0" encoding="UTF-8"?>
<svg xmlns="http://www.w3.org/2000/svg" width="611" height="647" viewBox="48 -20 611 647" role="img" aria-label="Simbolo Coralì con luna corallo e pesci">
  <title>Simbolo Coralì con luna corallo e pesci</title>
  <path fill-rule="evenodd" fill="rgb(89.019775%, 89.019775%, 89.411926%)" fill-opacity="1" d="M 166.902344 223.570312 C 161.929688 210.277344 166.3125 215.773438 159.816406 213.8125 C 157.183594 219.742188 165.324219 240.914062 169.632812 246.707031 L 177.644531 248.832031 C 173.117188 251.546875 163.375 268.132812 158.171875 267.332031 C 156.820312 291.5 149.058594 361.09375 206.5625 404.445312 C 210.191406 397.621094 194.898438 376.304688 204.414062 381.664062 C 212.25 386.074219 228.058594 408.953125 229.210938 420.839844 C 245.328125 431.550781 257.796875 437.136719 275.703125 444.378906 C 283.671875 447.601562 321.269531 462.480469 326.5 460.035156 C 318.296875 453.328125 289.195312 438.015625 277.894531 430.996094 C 282.113281 428.738281 336.453125 447.007812 346.660156 451.722656 C 383.667969 468.503906 386.128906 464.207031 427.539062 463.78125 C 448.992188 463.5625 453.640625 463.332031 466.234375 446.011719 C 473.175781 436.460938 479.664062 444.03125 495.546875 438.273438 C 500.378906 436.519531 504.648438 435.6875 506.03125 430.207031 C 509.542969 433.71875 506.992188 433.066406 509.695312 438.046875 C 520.679688 439.574219 521.554688 431.175781 519.007812 420.667969 C 524.878906 420.230469 534.929688 410.773438 535.082031 405.886719 C 534.484375 402.355469 535.191406 399.152344 536.183594 395.148438 C 537.140625 390.511719 548.015625 385.726562 550.160156 377.90625 C 569.167969 355.132812 569.625 366.023438 582.757812 359.210938 C 606.847656 346.714844 598.863281 307.382812 609.027344 303.089844 C 613.828125 317.160156 610.066406 354.636719 609.414062 374.417969 C 609.222656 380.257812 609.589844 382.761719 611.683594 385.25 C 618.070312 372.417969 633.636719 352.523438 636.769531 357.207031 C 652.011719 379.980469 608.441406 430.851562 597.066406 445.03125 C 593.597656 449.359375 585.796875 455.292969 584.78125 461.414062 C 593.082031 461.78125 601.019531 457.398438 609.621094 453.59375 C 613.292969 451.964844 613.296875 449.597656 618.074219 451.324219 C 612.488281 459.722656 604.542969 463.925781 601.175781 473.863281 C 608.371094 472.355469 607.429688 470.683594 613.027344 470.199219 C 605.878906 503.195312 545.789062 522.261719 562.550781 535.160156 C 567.921875 539.125 576.617188 529.71875 589.359375 531.285156 C 586.933594 566.363281 493.773438 587.214844 484.429688 592.273438 C 472.03125 598.980469 417.429688 610.304688 404.671875 612.3125 C 355.332031 620.074219 306.535156 607.335938 262.90625 592.546875 C 245.757812 586.734375 227.277344 579.917969 211.957031 569.320312 L 168.097656 539.902344 C 141.144531 517.621094 115.800781 487.449219 100.539062 455.285156 C 79.921875 411.832031 77.101562 409.78125 65.285156 356.421875 C 54.808594 309.128906 60.246094 238.621094 78.792969 194.078125 C 81.207031 188.28125 82.140625 185.023438 85.496094 182.085938 C 85.640625 189.1875 83.347656 200.734375 86.160156 205.746094 C 88.277344 202.679688 95.9375 181.824219 102.601562 170.4375 C 133.355469 114.824219 171.960938 78.433594 224.839844 44.675781 C 235.183594 38.074219 243.375 32.992188 255.445312 30.808594 C 254.519531 34.09375 253.746094 37.046875 253.59375 41.570312 C 272.953125 33.128906 316.320312 13.605469 361.742188 19.285156 C 354.863281 30.457031 344.429688 27.167969 331.378906 29.316406 C 283.917969 37.125 183.640625 93.980469 169.1875 142.867188 C 180.304688 140.15625 232.539062 87.992188 333.167969 64.148438 C 367.367188 56.738281 411.570312 55.570312 443.132812 66.839844 C 450.074219 69.320312 458.554688 71.847656 462.957031 76.832031 C 469.765625 84.542969 472.617188 81.144531 487.347656 99.691406 L 494.90625 106.34375 C 499.597656 112.648438 493.339844 109.855469 500.953125 116.195312 C 504.59375 119.226562 507.144531 119.039062 508.359375 124.199219 C 484.714844 119.5625 459.507812 51.0625 322 91.886719 C 258.8125 110.644531 199.722656 156.128906 178.527344 222.234375 C 175.300781 224.136719 177.304688 223.667969 166.902344 223.570312 "/>
  <path fill-rule="evenodd" fill="rgb(0%, 61.961365%, 89.019775%)" fill-opacity="1" d="M 439.277344 111.253906 C 444.601562 119.722656 442.65625 136.507812 439.152344 145.210938 C 428.554688 171.519531 395.320312 185.171875 386.589844 212.621094 C 383.019531 223.847656 385.621094 233.222656 379.582031 244.503906 C 374.222656 254.519531 368.238281 258.796875 362.757812 267.59375 C 357 276.839844 353.484375 278.726562 351.984375 297.167969 C 351.058594 308.609375 350.546875 325.617188 355.730469 333.945312 C 355.800781 327.070312 354.605469 326.316406 358.65625 322.511719 C 370.992188 310.921875 370.742188 308.125 387.460938 318.957031 C 394.480469 323.503906 404.628906 324.738281 408.5625 317.070312 C 411.835938 310.703125 410.601562 297.539062 410.707031 289.277344 C 410.910156 273.460938 416.554688 279.171875 418.589844 266.933594 C 420.585938 254.960938 419.757812 252.074219 427.261719 245.757812 C 434.515625 239.652344 436.648438 239.375 438.964844 227.378906 C 440.683594 218.464844 443.226562 211.105469 449.601562 208.542969 C 468.878906 218.359375 431.886719 244.269531 444.878906 260.128906 C 449.582031 265.863281 464.722656 268.683594 471.710938 263.828125 C 481.09375 257.308594 473.921875 246.191406 490.339844 247.023438 C 499.773438 260.039062 494.894531 287.929688 474.828125 288.519531 C 460.585938 288.9375 436.480469 270.175781 425.230469 281.609375 C 417.664062 289.304688 410.765625 318.765625 418.492188 331.550781 C 421.863281 337.132812 432.066406 344.210938 440.339844 339.230469 C 448.179688 334.507812 442.363281 324.683594 448.992188 315.835938 L 455.714844 315.800781 C 464.425781 330.914062 460.824219 349.164062 446.433594 355.308594 C 435.292969 360.0625 408.570312 351.46875 399.902344 346.734375 C 393.152344 343.046875 388.382812 338.707031 378.960938 338.101562 C 353.699219 336.46875 357.570312 363.832031 353.246094 370.652344 C 348.890625 377.519531 338.734375 373.921875 332.066406 372.089844 C 330.441406 361.382812 338.683594 347.125 334.117188 338.125 C 326.550781 323.214844 295.621094 340.1875 288.8125 303.839844 C 286.449219 291.210938 288.40625 280.210938 284.714844 267.242188 C 276.128906 237.09375 255.351562 248.753906 244.003906 228.414062 C 236.035156 214.136719 241.554688 193.96875 236.175781 174.535156 C 234.644531 169.003906 230.671875 162.328125 234.679688 158.191406 C 237.425781 155.28125 246.597656 155.230469 247.054688 172.644531 C 247.308594 182.445312 246.390625 193.421875 248.054688 203.023438 C 252.226562 227.078125 264.605469 223.214844 280.101562 232.332031 C 299.039062 243.46875 290.164062 257.773438 292.917969 280.230469 C 294.234375 290.953125 299.128906 295.125 304.964844 299.742188 C 310.445312 304.082031 315.191406 312.582031 321.261719 315.054688 C 318.71875 306.082031 308.097656 305.429688 308.734375 281.289062 C 309.765625 242.246094 322.671875 234.738281 288.613281 217.292969 C 282.386719 214.105469 265.730469 201.402344 272.511719 189.527344 C 277.695312 190.40625 276.601562 193.636719 281.09375 197.160156 C 284.273438 199.652344 288.101562 200.820312 292.066406 203.113281 C 298.175781 206.640625 304.941406 217.703125 314.253906 213.207031 C 319.988281 208.429688 317.753906 200.382812 313.792969 196.398438 C 310.121094 192.703125 304.410156 190.550781 300.113281 187.457031 C 285.175781 176.699219 294.640625 132.644531 295.613281 131.585938 C 298.875 128.046875 304.210938 130.472656 303.875 144.054688 C 303.507812 159.039062 303.238281 174.082031 314.425781 179.378906 C 352.808594 197.550781 296.109375 220.648438 327.0625 281.035156 C 330.429688 287.605469 331.230469 289.273438 333.5625 297.644531 C 334.097656 299.570312 339.058594 314.496094 339.648438 315.648438 C 341.328125 304.296875 337.574219 308.898438 343.132812 298.867188 C 350.332031 285.878906 338.367188 276.988281 357.679688 250.199219 C 367.195312 236.996094 380.152344 207.355469 370.527344 183.046875 C 365.386719 170.054688 361.296875 166.019531 354.015625 157.070312 C 345.070312 146.074219 346.226562 139.457031 339.507812 127.816406 C 331.671875 114.238281 322.542969 118.855469 313.882812 110.570312 C 308.855469 105.765625 300.160156 87.070312 307.28125 80.507812 C 313.679688 88.417969 319.441406 108.789062 332.4375 102.179688 C 344.273438 92.710938 329.402344 47.238281 339.066406 34.4375 C 354.195312 33.011719 351.515625 51.085938 348.125 62.339844 C 344.628906 73.957031 341.988281 76.15625 343.613281 91.449219 C 345.847656 112.480469 341.394531 120.035156 371.214844 154.449219 C 371.28125 149.964844 371.316406 150.121094 375.394531 140.953125 C 385.582031 118.0625 380.050781 113.734375 380.933594 92.566406 C 381.976562 67.5625 399.074219 65.933594 404.652344 45.660156 C 408.570312 31.421875 406.445312 25.824219 406.042969 11.316406 C 405.335938 -13.875 428.976562 10.761719 418.140625 46.058594 C 413.515625 61.121094 403.296875 69.09375 396.785156 77.902344 C 383.417969 95.992188 393.042969 106.828125 390.378906 126.351562 C 388.941406 136.890625 362.238281 194.082031 388.679688 185.683594 C 396.96875 183.050781 390.296875 175.148438 411.480469 155.15625 C 417.289062 149.671875 423.867188 145.371094 426.34375 134.316406 C 428.59375 124.269531 428.121094 110.207031 439.277344 111.253906 "/>
  <path fill-rule="evenodd" fill="rgb(0%, 0%, 0%)" fill-opacity="1" d="M 488.039062 178.609375 C 494.960938 193.632812 506.960938 199.339844 523.199219 200.78125 C 528.601562 201.257812 531.875 202.644531 534.957031 202.851562 C 539.855469 203.179688 541.75 200.847656 546.261719 200.789062 C 549.929688 200.738281 554.582031 202.429688 559.0625 201.554688 C 569.835938 199.460938 559.070312 198.039062 567.027344 193.957031 C 570.878906 193.632812 571.757812 199.199219 575.6875 203.433594 C 579.085938 207.09375 582.207031 208.847656 587.679688 209.398438 C 575.703125 178.710938 583.035156 190.773438 590.574219 165.75 C 573.722656 165.0625 581.613281 178.894531 568.347656 178.183594 C 567.511719 170.546875 571.59375 165.214844 574.171875 161.125 C 564.804688 163.234375 567.695312 165.917969 552.84375 164.34375 C 536.640625 162.628906 520.933594 162.492188 506.164062 169.421875 C 500.671875 171.996094 492.332031 175.359375 488.039062 178.609375 Z M 502.503906 174.445312 C 503.710938 174.445312 504.691406 175.347656 504.691406 176.464844 C 504.691406 177.582031 503.710938 178.484375 502.503906 178.484375 C 501.296875 178.484375 500.316406 177.582031 500.316406 176.464844 C 500.316406 175.347656 501.296875 174.445312 502.503906 174.445312 "/>
  <path fill-rule="evenodd" fill="rgb(0%, 0%, 0%)" fill-opacity="1" d="M 495.121094 311.332031 C 499.59375 321.042969 507.347656 324.730469 517.839844 325.660156 C 521.332031 325.972656 523.449219 326.867188 525.441406 327 C 528.605469 327.210938 529.832031 325.703125 532.746094 325.667969 C 535.117188 325.636719 538.121094 326.726562 541.019531 326.164062 C 547.980469 324.808594 541.023438 323.890625 546.164062 321.253906 C 548.65625 321.042969 549.222656 324.640625 551.761719 327.375 C 553.957031 329.738281 555.976562 330.875 559.511719 331.230469 C 551.773438 311.398438 556.511719 319.195312 561.382812 303.023438 C 550.492188 302.578125 555.59375 311.519531 547.019531 311.058594 C 546.476562 306.121094 549.117188 302.675781 550.785156 300.035156 C 544.730469 301.398438 546.597656 303.132812 537 302.113281 C 526.527344 301.003906 516.378906 300.917969 506.832031 305.394531 C 503.285156 307.058594 497.894531 309.234375 495.121094 311.332031 Z M 504.46875 308.640625 C 505.246094 308.640625 505.878906 309.226562 505.878906 309.945312 C 505.878906 310.667969 505.246094 311.253906 504.46875 311.253906 C 503.6875 311.253906 503.054688 310.667969 503.054688 309.945312 C 503.054688 309.226562 503.6875 308.640625 504.46875 308.640625 "/>
  <path fill-rule="evenodd" fill="rgb(0%, 0%, 0%)" fill-opacity="1" d="M 534.316406 251.179688 C 537.367188 257.796875 542.652344 260.3125 549.800781 260.945312 C 552.179688 261.15625 553.625 261.765625 554.980469 261.859375 C 557.136719 262.003906 557.972656 260.976562 559.960938 260.949219 C 561.574219 260.929688 563.625 261.671875 565.597656 261.289062 C 570.339844 260.363281 565.601562 259.738281 569.105469 257.941406 C 570.800781 257.796875 571.1875 260.25 572.917969 262.113281 C 574.414062 263.726562 575.789062 264.5 578.199219 264.742188 C 572.925781 251.226562 576.15625 256.539062 579.476562 245.519531 C 572.054688 245.214844 575.53125 251.308594 569.6875 250.992188 C 569.316406 247.628906 571.117188 245.28125 572.253906 243.480469 C 568.125 244.410156 569.398438 245.59375 562.859375 244.898438 C 555.722656 244.144531 548.804688 244.082031 542.300781 247.136719 C 539.882812 248.269531 536.207031 249.75 534.316406 251.179688 Z M 540.6875 249.347656 C 541.21875 249.347656 541.648438 249.746094 541.648438 250.238281 C 541.648438 250.730469 541.21875 251.125 540.6875 251.125 C 540.15625 251.125 539.726562 250.730469 539.726562 250.238281 C 539.726562 249.746094 540.15625 249.347656 540.6875 249.347656 "/>
</svg>
