<?xml version="1.0" encoding="UTF-8"?>
<svg xmlns="http://www.w3.org/2000/svg" width="352" height="45" viewBox="193 507 352 45" role="img" aria-label="Slogan Arte in cucina">
  <title>Slogan Arte in cucina</title>
  <path fill-rule="nonzero" fill="rgb(0%, 0%, 0%)" fill-opacity="1" d="M 227.398438 544.757812 L 222.6875 544.757812 C 222.6875 543.683594 221.75 540.320312 219.875 534.664062 L 206.984375 534.664062 C 205.136719 540.238281 204.214844 543.601562 204.214844 544.757812 L 199.703125 544.757812 C 199.703125 544.167969 201.625 539.050781 205.464844 529.417969 C 209.308594 519.792969 211.230469 514.5 211.230469 513.53125 L 216.414062 513.53125 C 216.414062 514.484375 218.242188 519.695312 221.902344 529.199219 C 225.570312 538.691406 227.398438 543.878906 227.398438 544.757812 Z M 218.84375 531.523438 C 215.34375 522.136719 213.59375 517.152344 213.59375 516.5625 L 213.347656 516.5625 C 213.347656 517.050781 211.542969 522.042969 207.921875 531.523438 Z M 255.660156 544.757812 L 251.34375 544.757812 C 249.917969 540.164062 248.875 537.128906 248.21875 535.648438 C 247.378906 533.773438 246.433594 532.570312 245.382812 532.023438 C 244.542969 531.597656 243.050781 531.375 240.894531 531.375 C 239.628906 531.375 238.5 531.390625 237.523438 531.425781 C 237.523438 536.589844 237.605469 541.03125 237.789062 544.757812 L 233.636719 544.757812 C 233.855469 539.796875 233.96875 534.335938 233.96875 528.355469 C 233.96875 522.730469 233.855469 517.789062 233.636719 513.53125 L 236.785156 513.53125 C 237.453125 513.53125 238.300781 513.515625 239.328125 513.46875 C 240.359375 513.417969 241.535156 513.394531 242.859375 513.394531 C 249.378906 513.394531 252.640625 515.808594 252.640625 520.636719 C 252.640625 524.648438 250.8125 527.472656 247.144531 529.101562 L 247.144531 529.335938 C 248.785156 529.871094 250.109375 531.089844 251.125 533.003906 C 251.96875 534.609375 253.480469 538.519531 255.660156 544.757812 Z M 248.820312 522.265625 C 248.820312 518.460938 246.425781 516.5625 241.632812 516.5625 C 239.917969 516.5625 238.484375 516.660156 237.316406 516.871094 C 237.425781 519.65625 237.476562 523.4375 237.476562 528.207031 C 238.371094 528.238281 239.222656 528.257812 240.046875 528.257812 C 245.894531 528.257812 248.820312 526.257812 248.820312 522.265625 Z M 281.71875 513.53125 L 281.609375 516.921875 C 278.660156 516.757812 275.609375 516.675781 272.46875 516.675781 C 272.441406 519.746094 272.425781 523.640625 272.425781 528.355469 C 272.425781 533.570312 272.5 539.035156 272.652344 544.757812 L 268.566406 544.757812 C 268.742188 539.304688 268.832031 533.839844 268.832031 528.355469 C 268.832031 523.707031 268.789062 519.808594 268.695312 516.675781 C 266.492188 516.675781 263.398438 516.773438 259.410156 516.960938 L 259.519531 513.53125 Z M 306.335938 541.140625 L 306.199219 544.757812 L 288.199219 544.757812 C 288.402344 539.796875 288.511719 534.335938 288.511719 528.355469 C 288.511719 522.730469 288.402344 517.789062 288.199219 513.53125 L 305.085938 513.53125 L 304.902344 517.109375 C 300.808594 516.921875 296.46875 516.824219 291.878906 516.824219 C 291.972656 519.304688 292.019531 522.652344 292.019531 526.867188 C 295.972656 526.867188 299.503906 526.773438 302.597656 526.578125 L 302.597656 530.15625 C 299.296875 530.007812 295.769531 529.933594 292.019531 529.933594 C 292.019531 534.042969 292.085938 537.898438 292.214844 541.5 C 297.164062 541.5 301.867188 541.375 306.335938 541.140625 Z M 327.949219 544.757812 L 323.710938 544.757812 C 323.929688 539.574219 324.046875 534.109375 324.046875 528.355469 C 324.046875 522.699219 323.929688 517.757812 323.710938 513.53125 L 327.949219 513.53125 C 327.742188 517.902344 327.636719 522.839844 327.636719 528.355469 C 327.636719 534.140625 327.742188 539.609375 327.949219 544.757812 Z M 360.5625 544.757812 L 357.4375 544.757812 C 357.4375 544.488281 354.996094 540.65625 350.109375 533.273438 C 345.003906 525.515625 342.089844 520.628906 341.382812 518.597656 L 341.152344 518.597656 C 341.417969 522.445312 341.554688 525.753906 341.554688 528.503906 C 341.554688 533.871094 341.671875 539.289062 341.890625 544.757812 L 338.140625 544.757812 C 338.394531 539.558594 338.523438 534.09375 338.523438 528.355469 C 338.523438 522.714844 338.394531 517.773438 338.140625 513.53125 L 342.425781 513.53125 C 342.425781 513.984375 344.675781 517.625 349.171875 524.46875 C 353.875 531.660156 356.558594 536.351562 357.214844 538.519531 L 357.4375 538.519531 C 357.183594 534.625 357.054688 531.308594 357.054688 528.59375 C 357.054688 522.683594 356.957031 517.65625 356.742188 513.53125 L 360.5625 513.53125 C 360.3125 517.773438 360.179688 522.714844 360.179688 528.355469 C 360.179688 534.09375 360.3125 539.558594 360.5625 544.757812 Z M 400.367188 540.941406 L 400.078125 544.519531 C 398.238281 545.109375 396.25 545.402344 394.09375 545.402344 C 388.96875 545.402344 385.117188 543.898438 382.542969 540.886719 C 379.964844 537.875 378.675781 534.191406 378.675781 529.84375 C 378.675781 525.285156 380.117188 521.355469 382.984375 518.058594 C 385.859375 514.753906 389.722656 513.109375 394.578125 513.109375 C 395.921875 513.109375 397.332031 513.320312 398.824219 513.753906 L 398.203125 517.566406 C 396.484375 516.988281 394.960938 516.699219 393.621094 516.699219 C 390.011719 516.699219 387.285156 517.902344 385.421875 520.300781 C 383.5625 522.699219 382.632812 525.628906 382.632812 529.101562 C 382.632812 532.636719 383.699219 535.664062 385.84375 538.183594 C 387.992188 540.714844 390.949219 541.972656 394.738281 541.972656 C 396.179688 541.972656 398.054688 541.628906 400.367188 540.941406 Z M 430.890625 513.53125 C 430.839844 516.5625 430.792969 519.375 430.761719 522.003906 C 430.730469 524.621094 430.714844 527.070312 430.714844 529.335938 C 430.714844 540.050781 426.773438 545.402344 418.898438 545.402344 C 416.847656 545.402344 415.085938 545.09375 413.617188 544.453125 C 412.152344 543.824219 410.949219 542.859375 410.003906 541.554688 C 409.058594 540.253906 408.363281 538.609375 407.921875 536.628906 C 407.488281 534.648438 407.265625 532.300781 407.265625 529.597656 C 407.265625 527.234375 407.25 524.722656 407.21875 522.0625 C 407.1875 519.402344 407.144531 516.5625 407.082031 513.53125 L 411.328125 513.53125 C 411.152344 519.628906 411.0625 524.402344 411.0625 527.855469 C 411.0625 530.628906 411.183594 532.898438 411.445312 534.648438 C 411.695312 536.398438 412.144531 537.855469 412.792969 539.027344 C 413.441406 540.191406 414.257812 541.015625 415.238281 541.507812 C 416.222656 542 417.472656 542.234375 418.992188 542.234375 C 420.585938 542.234375 421.878906 542 422.878906 541.507812 C 423.871094 541.015625 424.6875 540.214844 425.3125 539.085938 C 425.9375 537.957031 426.386719 536.515625 426.652344 534.746094 C 426.917969 532.980469 427.050781 530.664062 427.050781 527.804688 C 427.050781 526.113281 427.027344 524.082031 426.972656 521.726562 C 426.917969 519.367188 426.84375 516.636719 426.742188 513.53125 Z M 460.289062 540.941406 L 460 544.519531 C 458.160156 545.109375 456.171875 545.402344 454.015625 545.402344 C 448.890625 545.402344 445.039062 543.898438 442.464844 540.886719 C 439.886719 537.875 438.597656 534.191406 438.597656 529.84375 C 438.597656 525.285156 440.039062 521.355469 442.90625 518.058594 C 445.78125 514.753906 449.644531 513.109375 454.503906 513.109375 C 455.84375 513.109375 457.253906 513.320312 458.75 513.753906 L 458.125 517.566406 C 456.40625 516.988281 454.882812 516.699219 453.542969 516.699219 C 449.933594 516.699219 447.207031 517.902344 445.347656 520.300781 C 443.484375 522.699219 442.554688 525.628906 442.554688 529.101562 C 442.554688 532.636719 443.621094 535.664062 445.765625 538.183594 C 447.914062 540.714844 450.875 541.972656 454.664062 541.972656 C 456.101562 541.972656 457.980469 541.628906 460.289062 540.941406 Z M 471.738281 544.757812 L 467.5 544.757812 C 467.722656 539.574219 467.835938 534.109375 467.835938 528.355469 C 467.835938 522.699219 467.722656 517.757812 467.5 513.53125 L 471.738281 513.53125 C 471.535156 517.902344 471.425781 522.839844 471.425781 528.355469 C 471.425781 534.140625 471.535156 539.609375 471.738281 544.757812 Z M 504.355469 544.757812 L 501.226562 544.757812 C 501.226562 544.488281 498.789062 540.65625 493.902344 533.273438 C 488.792969 525.515625 485.882812 520.628906 485.171875 518.597656 L 484.945312 518.597656 C 485.210938 522.445312 485.347656 525.753906 485.347656 528.503906 C 485.347656 533.871094 485.460938 539.289062 485.683594 544.757812 L 481.933594 544.757812 C 482.183594 539.558594 482.3125 534.09375 482.3125 528.355469 C 482.3125 522.714844 482.183594 517.773438 481.933594 513.53125 L 486.214844 513.53125 C 486.214844 513.984375 488.464844 517.625 492.964844 524.46875 C 497.667969 531.660156 500.351562 536.351562 501.007812 538.519531 L 501.226562 538.519531 C 500.976562 534.625 500.847656 531.308594 500.847656 528.59375 C 500.847656 522.683594 500.746094 517.65625 500.535156 513.53125 L 504.355469 513.53125 C 504.101562 517.773438 503.972656 522.714844 503.972656 528.355469 C 503.972656 534.09375 504.101562 539.558594 504.355469 544.757812 Z M 538.277344 544.757812 L 533.566406 544.757812 C 533.566406 543.683594 532.628906 540.320312 530.753906 534.664062 L 517.863281 534.664062 C 516.019531 540.238281 515.09375 543.601562 515.09375 544.757812 L 510.582031 544.757812 C 510.582031 544.167969 512.503906 539.050781 516.34375 529.417969 C 520.1875 519.792969 522.109375 514.5 522.109375 513.53125 L 527.292969 513.53125 C 527.292969 514.484375 529.121094 519.695312 532.78125 529.199219 C 536.449219 538.691406 538.277344 543.878906 538.277344 544.757812 Z M 529.726562 531.523438 C 526.226562 522.136719 524.472656 517.152344 524.472656 516.5625 L 524.230469 516.5625 C 524.230469 517.050781 522.421875 522.042969 518.800781 531.523438 Z M 529.726562 531.523438 "/>
</svg>
