<svg width="35" height="35" viewBox="0 0 35 35" fill="none" xmlns="http://www.w3.org/2000/svg">
<path d="M35 17.2104C35 26.7607 27.1326 34.4209 17.5504 34.4209C7.86743 34.5204 0 26.7607 0 17.2104C0 7.75962 7.86743 0 17.4496 0C27.1326 0 35 7.75962 35 17.2104Z" fill="#1B1B1B"/>
<path d="M21.585 13.5297C21.585 16.0168 17.0461 24.9702 17.0461 24.9702C17.0461 24.9702 12.5072 16.0168 12.5072 13.5297C12.5072 11.0426 14.5245 9.05298 17.0461 9.05298C19.5677 9.05298 21.585 11.0426 21.585 13.5297Z" stroke="white" stroke-miterlimit="10"/>
<path d="M17.0461 16.1162C18.216 16.1162 19.1643 15.1808 19.1643 14.027C19.1643 12.8732 18.216 11.9379 17.0461 11.9379C15.8763 11.9379 14.928 12.8732 14.928 14.027C14.928 15.1808 15.8763 16.1162 17.0461 16.1162Z" fill="white" stroke="white" stroke-miterlimit="10"/>
</svg>
