<svg width="35" height="35" viewBox="0 0 35 35" fill="none" xmlns="http://www.w3.org/2000/svg">
<path fill-rule="evenodd" clip-rule="evenodd" d="M35 17.5C35 27.1661 27.1661 35 17.5 35C7.83387 35 0 27.1661 0 17.5C0 7.83387 7.83387 0 17.5 0C27.1661 0 35 7.83387 35 17.5Z" fill="#E12F67"/>
<path d="M17.5001 12.963C14.9943 12.963 12.963 14.9943 12.963 17.5001C12.963 20.0058 14.9943 22.0371 17.5001 22.0371C20.0058 22.0371 22.0371 20.0058 22.0371 17.5001C22.0371 16.2968 21.5591 15.1427 20.7082 14.2919C19.8574 13.441 18.7033 12.963 17.5001 12.963ZM17.5001 20.447C15.8725 20.447 14.5531 19.1276 14.5531 17.5001C14.5531 15.8725 15.8725 14.5531 17.5001 14.5531C19.1276 14.5531 20.447 15.8725 20.447 17.5001C20.447 19.1276 19.1276 20.447 17.5001 20.447Z" fill="white"/>
<path d="M22.6852 13.6111C23.4011 13.6111 23.9815 13.0308 23.9815 12.3149C23.9815 11.5989 23.4011 11.0186 22.6852 11.0186C21.9693 11.0186 21.3889 11.5989 21.3889 12.3149C21.3889 13.0308 21.9693 13.6111 22.6852 13.6111Z" fill="white"/>
<path d="M26.7092 11.1269C26.2039 9.8243 25.1723 8.79446 23.8675 8.29005C23.1117 8.00676 22.3132 7.85355 21.506 7.83693C20.4667 7.79097 20.1378 7.77783 17.5001 7.77783C14.8623 7.77783 14.5268 7.77783 13.4941 7.83693C12.6869 7.85355 11.8884 8.00676 11.1326 8.29005C9.82777 8.79446 8.79618 9.8243 8.29091 11.1269C8.00714 11.8815 7.85367 12.6786 7.83703 13.4844C7.79099 14.522 7.77783 14.8503 7.77783 17.4836C7.77783 20.1169 7.77783 20.4519 7.83703 21.4829C7.85367 22.2887 8.00714 23.0858 8.29091 23.8404C8.79618 25.143 9.82777 26.1728 11.1326 26.6772C11.8865 26.9717 12.685 27.1361 13.4941 27.1632C14.5334 27.2091 14.8623 27.2223 17.5001 27.2223C20.1378 27.2223 20.4733 27.2223 21.506 27.1632C22.3132 27.1466 23.1117 26.9934 23.8675 26.7101C25.1723 26.2057 26.2039 25.1758 26.7092 23.8732C26.993 23.1186 27.1464 22.3215 27.1631 21.5157C27.2091 20.4781 27.2223 20.1498 27.2223 17.5165C27.2223 14.8832 27.2223 14.5483 27.1631 13.5173C27.1502 12.7004 26.9966 11.8918 26.7092 11.1269ZM25.3936 21.404C25.388 22.0252 25.2745 22.6407 25.0581 23.2231C24.7307 24.0712 24.0593 24.7415 23.2097 25.0684C22.6326 25.2821 22.0229 25.3954 21.4074 25.4033C20.3812 25.4492 20.0918 25.4624 17.4606 25.4624C14.8294 25.4624 14.5597 25.4624 13.5138 25.4033C12.8983 25.3954 12.2886 25.2821 11.7115 25.0684C10.859 24.7437 10.1847 24.073 9.85647 23.2231C9.64236 22.6469 9.52889 22.0383 9.52099 21.4237C9.47495 20.3993 9.46179 20.1104 9.46179 17.4836C9.46179 14.8569 9.46179 14.5877 9.52099 13.5435C9.52662 12.9224 9.64013 12.3069 9.85647 11.7245C10.1847 10.8746 10.859 10.2038 11.7115 9.87922C12.2886 9.66548 12.8983 9.5522 13.5138 9.54431C14.54 9.49835 14.8294 9.48521 17.4606 9.48521C20.0918 9.48521 20.3615 9.48521 21.4074 9.54431C22.0229 9.5522 22.6326 9.66548 23.2097 9.87922C24.0593 10.2061 24.7307 10.8764 25.0581 11.7245C25.2722 12.3007 25.3857 12.9093 25.3936 13.5238C25.4397 14.5483 25.4528 14.8372 25.4528 17.4639C25.4528 20.0907 25.4528 20.3731 25.4068 21.404H25.3936Z" fill="white"/>
</svg>
