<svg width="35" height="35" viewBox="0 0 35 35" fill="none" xmlns="http://www.w3.org/2000/svg">
<path d="M35 17.4496C35 27.1326 27.1326 34.8991 17.5504 34.8991C7.86743 35 0 27.1326 0 17.4496C0 7.86743 7.86743 0 17.4496 0C27.1326 0 35 7.86743 35 17.4496Z" fill="#1B1B1B"/>
<path d="M24.3084 31.7723C24.3084 31.7723 21.5851 31.4697 20.9799 28.9481C20.2739 26.4265 22.4929 25.317 24.0059 25.1152C25.6197 24.8126 23.0981 27.1325 21.5851 27.4351C20.4756 27.6369 19.1644 27.536 19.1644 26.2248C19.1644 24.9135 20.0721 24.1066 21.4842 23.2997C23.4007 22.1902 23.6024 22.5936 23.1989 23.2997C22.7955 24.0057 21.2825 26.2248 18.1557 25.4178C14.928 24.6109 18.1557 22.5936 18.1557 22.5936" stroke="white" stroke-miterlimit="10" stroke-linecap="round" stroke-linejoin="round"/>
<path d="M11.2969 5.85011C11.2969 5.85011 8.77526 6.45529 9.27958 8.47258C9.7839 10.7925 11.2969 14.3227 12.2046 16.1383C13.2133 18.0547 15.634 22.3919 17.8531 22.5936C20.0721 22.7953 21.0807 20.1729 21.0807 20.1729C21.0807 20.1729 20.7781 16.0374 19.0634 16.5417C17.3487 17.0461 16.3401 18.8616 16.3401 18.8616C16.3401 18.8616 14.7263 17.3487 13.6168 15.2305C12.1038 12.3054 12.0029 10.8933 12.0029 10.8933C12.0029 10.8933 14.1211 11.0951 15.1297 9.48123C15.8358 8.27085 13.7176 5.95097 13.7176 5.95097C13.7176 5.95097 12.4064 5.64838 11.2969 5.85011Z" stroke="white" stroke-miterlimit="10" stroke-linecap="round" stroke-linejoin="round"/>
</svg>
