<svg width="35" height="35" viewBox="0 0 35 35" fill="none" xmlns="http://www.w3.org/2000/svg">
<path fill-rule="evenodd" clip-rule="evenodd" d="M17.5 0C27.1661 0 35 7.83387 35 17.5C35 27.1661 27.1661 35 17.5 35C7.83387 35 0 27.1661 0 17.5C0 7.83387 7.83387 0 17.5 0Z" fill="#00ACEE"/>
<path fill-rule="evenodd" clip-rule="evenodd" d="M28.5186 12.2128C27.7567 12.5235 26.937 12.7338 26.0765 12.828C26.954 12.3446 27.6275 11.5756 27.9472 10.656C27.1241 11.1048 26.2125 11.4344 25.2432 11.6102C24.4677 10.8443 23.3623 10.3704 22.1379 10.3704C19.7876 10.3704 17.8829 12.1312 17.8829 14.2969C17.8829 14.6045 17.9203 14.9027 17.9917 15.1915C14.4545 15.0282 11.3185 13.4652 9.21996 11.0891C8.85602 11.6667 8.64515 12.3446 8.64515 13.0634C8.64515 14.4256 9.39682 15.6277 10.5362 16.3308C9.83898 16.312 9.18254 16.1362 8.61114 15.838C8.60773 15.8569 8.60773 15.8726 8.60773 15.8914C8.60773 17.7903 10.0771 19.3785 12.0226 19.7395C11.6654 19.8305 11.2913 19.8776 10.9036 19.8776C10.6281 19.8776 10.3628 19.8556 10.1009 19.8085C10.6451 21.3685 12.2164 22.5016 14.0769 22.5361C12.6212 23.5876 10.7879 24.2153 8.7914 24.2153C8.45128 24.2153 8.11115 24.1965 7.77783 24.1619C9.65872 25.2762 11.8967 25.9259 14.3014 25.9259C22.1277 25.9259 26.4064 19.9435 26.4064 14.752C26.4064 14.5825 26.403 14.413 26.3962 14.2436C27.2295 13.6911 27.9506 12.9975 28.5186 12.2128Z" fill="white"/>
</svg>
